<svg width="64" height="65" viewBox="0 0 64 65" fill="none" xmlns="http://www.w3.org/2000/svg">
<path d="M18.6569 0.614014C8.36875 0.614014 0 8.98344 0 19.2656V45.9032C0 56.1827 8.3765 64.5444 18.6673 64.5444H45.3275C55.6156 64.5444 63.9844 56.175 63.9844 45.8928V19.2552C63.9844 8.9757 55.6079 0.614014 45.3171 0.614014H18.6569ZM50.6543 11.2691C52.1259 11.2691 53.3203 12.4624 53.3203 13.9328C53.3203 15.4032 52.1259 16.5966 50.6543 16.5966C49.1827 16.5966 47.9883 15.4032 47.9883 13.9328C47.9883 12.4624 49.1827 11.2691 50.6543 11.2691ZM31.9922 16.5966C40.814 16.5966 47.9883 23.7648 47.9883 32.5792C47.9883 41.3936 40.814 48.5618 31.9922 48.5618C23.1703 48.5618 15.9961 41.3936 15.9961 32.5792C15.9961 23.7648 23.1703 16.5966 31.9922 16.5966ZM31.9922 21.9241C29.1639 21.9241 26.4515 23.0467 24.4516 25.0449C22.4517 27.0431 21.3281 29.7533 21.3281 32.5792C21.3281 35.4051 22.4517 38.1153 24.4516 40.1135C26.4515 42.1117 29.1639 43.2343 31.9922 43.2343C34.8205 43.2343 37.5329 42.1117 39.5328 40.1135C41.5327 38.1153 42.6562 35.4051 42.6562 32.5792C42.6562 29.7533 41.5327 27.0431 39.5328 25.0449C37.5329 23.0467 34.8205 21.9241 31.9922 21.9241Z" fill="black"/>
</svg>
