<svg width="69" height="70" viewBox="0 0 69 70" fill="none" xmlns="http://www.w3.org/2000/svg">
<path d="M60.7031 0.740479H8.20312C3.675 0.740479 0 4.41238 0 8.93668V61.3924C0 65.9167 3.675 69.5886 8.20312 69.5886H60.7031C65.2312 69.5886 68.9062 65.9167 68.9062 61.3924V8.93668C68.9062 4.41238 65.2312 0.740479 60.7031 0.740479ZM21.3281 26.9683V58.1139H11.4844V26.9683H21.3281ZM11.4844 17.9033C11.4844 15.6084 13.4531 13.8544 16.4062 13.8544C19.3594 13.8544 21.2133 15.6084 21.3281 17.9033C21.3281 20.1983 19.4906 22.0506 16.4062 22.0506C13.4531 22.0506 11.4844 20.1983 11.4844 17.9033ZM57.4219 58.1139H47.5781C47.5781 58.1139 47.5781 42.9345 47.5781 41.7215C47.5781 38.443 45.9375 35.1645 41.8359 35.099H41.7047C37.7344 35.099 36.0938 38.4758 36.0938 41.7215C36.0938 43.2132 36.0938 58.1139 36.0938 58.1139H26.25V26.9683H36.0938V31.1648C36.0938 31.1648 39.2602 26.9683 45.6258 26.9683C52.1391 26.9683 57.4219 31.4435 57.4219 40.5085V58.1139Z" fill="black"/>
</svg>
