<svg xmlns="http://www.w3.org/2000/svg" width="58.946" height="97.474" viewBox="0 0 58.946 97.474"><defs><style>.a{fill:#896492;}.b{fill:#42d78e;}.c{fill:#ff8961;}</style></defs><path d="M29.777,102.232H26.82v9.286h2.956Z" transform="translate(-3.685 -14.047)"/><path d="M42.321,102.232H39.307v9.286h3.015Z" transform="translate(-5.401 -14.047)"/><path class="a" d="M39.008,69.992H25.451A12.4,12.4,0,0,0,13.045,82.376v5.671a12.4,12.4,0,0,0,12.406,12.384H39.008A12.4,12.4,0,0,0,51.415,88.047V82.376A12.4,12.4,0,0,0,39.008,69.992Z" transform="translate(-1.792 -9.617)"/><path class="b" d="M37.528,42.94H23.971A12.432,12.432,0,0,0,11.564,55.324V61c0,6.185,10.557,11.382,10.557,11.382H46.486V70.764c2.92-2.271,3.448-5.807,3.448-9.766V55.324A12.432,12.432,0,0,0,37.528,42.94Z" transform="translate(-1.589 -5.9)"/><path d="M3.23,35.329,7.48,31.088H53.756l3.91,3.9-6.914,6.038V34.016H8.117l1.724,7.912Z" transform="translate(-0.444 -4.271)"/><path class="c" d="M38.682,14.629H25.125A12.432,12.432,0,0,0,12.719,27.013v5.674A12.432,12.432,0,0,0,22.28,44.735v-1.08H45.362V43.1a12.392,12.392,0,0,0,5.723-10.416V27.01A12.432,12.432,0,0,0,38.679,14.627Z" transform="translate(-1.748 -2.01)"/><path d="M32.458,109.1H29.443a1.682,1.682,0,1,0,0,3.364h3.015a1.682,1.682,0,1,0,0-3.364Z" transform="translate(-3.814 -14.99)"/><path d="M44.76,109.1H41.746a1.682,1.682,0,1,0,0,3.364H44.76a1.682,1.682,0,1,0,0-3.364Z" transform="translate(-5.504 -14.99)"/><path d="M40.172,10.7a1.809,1.809,0,0,0-2.328-1.055c-.15.055-.3.108-.459.155a1.382,1.382,0,0,0-.492-1.566,4.487,4.487,0,0,0,.37-.358s.022-.025.036-.039l.042-.042A4.531,4.531,0,0,0,38.578,4.63a4.641,4.641,0,0,0-1.237-3.2c-.011-.014-.025-.028-.036-.042A4.266,4.266,0,0,0,34.112,0H32.065a4.358,4.358,0,0,0-3.154,1.346,1.091,1.091,0,0,0-.078.083,4.629,4.629,0,0,0-1.2,3.2,4.5,4.5,0,0,0,1.243,3.209l.022.022.017.017a4.952,4.952,0,0,0,.576.511,1.412,1.412,0,0,0-.359.636,1.372,1.372,0,0,0,.011.688c-.186-.042-.375-.086-.567-.13a1.8,1.8,0,1,0-.862,3.5c4.355,1.069,8.2,1.133,11.4-.064A1.8,1.8,0,0,0,40.169,10.7Z" transform="translate(-3.619)"/><path d="M32.013,31.747a1.355,1.355,0,1,0-1.357-1.355A1.356,1.356,0,0,0,32.013,31.747Z" transform="translate(-4.212 -3.99)"/><path d="M45.5,31.744a1.355,1.355,0,1,0-1.357-1.355A1.356,1.356,0,0,0,45.5,31.744Z" transform="translate(-6.065 -3.989)"/><path d="M38.946,33.156a1.813,1.813,0,0,1-.993.414.845.845,0,0,1-.623-.314l-1.16,1.1a2.434,2.434,0,0,0,1.783.811,3.3,3.3,0,0,0,1.922-.708l-.929-1.3Zm-1.616.1a.8.8,0,0,0-1.157,1.1l1.16-1.1Zm2.545,1.2a.8.8,0,1,0-.929-1.3Z" transform="translate(-4.94 -4.535)"/><path d="M27.791,62.365a1.355,1.355,0,1,0-1.357-1.355A1.356,1.356,0,0,0,27.791,62.365Z" transform="translate(-3.632 -8.197)"/><path d="M40.771,62.365a1.355,1.355,0,1,0-1.357-1.355A1.356,1.356,0,0,0,40.771,62.365Z" transform="translate(-5.416 -8.197)"/><path d="M32.256,89.809A1.355,1.355,0,1,0,30.9,88.455,1.356,1.356,0,0,0,32.256,89.809Z" transform="translate(-4.245 -11.968)"/><path d="M44.5,89.809a1.355,1.355,0,1,0-1.357-1.355A1.356,1.356,0,0,0,44.5,89.809Z" transform="translate(-5.928 -11.968)"/><path d="M33.491,65.16a4.11,4.11,0,0,0,1.115-.183,1.69,1.69,0,0,0,.932-.713l-1.374-.824c.025-.042.039-.017-.081.025a2.482,2.482,0,0,1-.667.1ZM31.18,64.5a3.573,3.573,0,0,0,2.311.658l-.072-1.6a1.965,1.965,0,0,1-1.3-.364l-.932,1.3Zm4.358-.242a.8.8,0,0,0-1.374-.822l1.374.824Zm-2.086.1.036.8-.039-.8Zm-1.34-1.16a.8.8,0,1,0-.932,1.3Z" transform="translate(-4.238 -8.663)"/><path d="M36.323,92.792a2.911,2.911,0,0,0,1.666.614,2.219,2.219,0,0,0,1.557-.688l-.982-.98a.792.792,0,0,1-.576.283,1.573,1.573,0,0,1-.865-.358l-.8,1.13Zm3.223-.075a.694.694,0,0,0-.982-.98Zm-2.419-1.055a.693.693,0,1,0-.8,1.13Z" transform="translate(-4.951 -12.577)"/><path d="M0,70.751,2.809,41.872a3.62,3.62,0,0,1,3.613-3.606l.715.033V31.088l13.4,5.341v46.8H7.133V70.748H0Z" transform="translate(0 -4.271)"/><path d="M60.259,31.088l-.737,7.19a3.617,3.617,0,0,1,3.365,3.592l3.006,28.879H58.78l-.056,12.478H50.564V35.163Z" transform="translate(-6.948 -4.271)"/></svg>