<svg width="69" height="70" viewBox="0 0 69 70" fill="none" xmlns="http://www.w3.org/2000/svg">
<path d="M11.4844 0.177246C5.14172 0.177246 0 5.31463 0 11.6519V57.5507C0 63.888 5.14172 69.0253 11.4844 69.0253H57.4219C63.7645 69.0253 68.9062 63.888 68.9062 57.5507V11.6519C68.9062 5.31463 63.7645 0.177246 57.4219 0.177246H11.4844ZM14.9066 14.9304H27.9291L37.1768 28.0603L48.3984 14.9304H52.5L39.0289 30.6889L55.6403 54.2722H42.621L31.8896 39.0388L18.8672 54.2722H14.7656L30.0375 36.4102L14.9066 14.9304ZM21.1871 18.2089L44.3321 50.9937H49.3597L26.2148 18.2089H21.1871Z" fill="black"/>
</svg>
