<svg xmlns="http://www.w3.org/2000/svg" width="1150.709" height="510.391" viewBox="0 0 1150.709 510.391">
  <defs>
    <style>
      .cls-1 {
        fill-rule: evenodd;
      }
    </style>
  </defs>
  <g id="Grupo_29" data-name="Grupo 29" transform="translate(-170.397 -279.33)">
    <path id="Trazado_10" data-name="Trazado 10" d="M179.039,5.8l-45.586,149.9L87.867,5.8H12.131V240.683H69.574V115.532L108.3,242.391h50.313l38.723-126.858V240.683h57.443V5.8Z" transform="translate(165.984 277.241)"/>
    <path id="Trazado_2" data-name="Trazado 2" d="M1142.77,6.713h57.444l.128,87.417h41.607l-.134-87.417h57.739V238.694h-57.739l.134-89.417h-41.607l-.128,89.417H1142.77Z" transform="translate(-241.474 276.911)"/>
    <path id="Trazado_3" data-name="Trazado 3" d="M1539.389,244.009c-71.171,0-122.309-56.8-122.309-122.138S1468.218,0,1539.389,0s122.046,56.8,122.046,121.871S1610.265,244.009,1539.389,244.009Zm0-57.656c37.149,0,64.307-29.387,64.307-64.509s-27.158-64.215-64.307-64.215-64.6,29.121-64.6,64.215S1501.952,186.353,1539.389,186.353Z" transform="translate(-340.329 279.33)"/>
    <path id="Trazado_4" data-name="Trazado 4" d="M355.623,658.487,441.374,423.6H500.82l84.309,234.888H526.243l-9.721-29.121H425.644l-9.721,29.121Zm146.051-73.9L471.1,491.842l-30.578,92.75Z" transform="translate(42.197 126.674)"/>
    <path id="Trazado_5" data-name="Trazado 5" d="M1142.77,424.1h156.784v53.949h-99.34v40.535h87.321v42.8h-87.321v42.8h99.34v54.508H1142.77Z" transform="translate(-241.474 126.494)"/>
    <path id="Trazado_6" data-name="Trazado 6" d="M1406.51,579.061h56.3c.557,15.414,9.716,28.535,28.278,28.535,16,0,26.013-9.707,26.013-23.121,0-15.707-13.138-21.974-38.294-30.828-40.859-14.267-64.013-32.241-64.013-70.775s32.87-67.069,75.443-67.069c45.714,0,75.731,29.681,76.026,74.483l-52.583-.293c-.557-13.708-8.008-24.535-23.442-24.535-12.875,0-21.152,8-21.152,18.268,0,14.56,14.577,19.414,32.02,25.387,40,13.414,74.023,25.388,74.023,76.19,0,46.508-36.292,73.922-83.746,73.922-50.581,0-84.6-32.534-84.872-80.189Z" transform="translate(-336.52 129.484)"/>
    <path id="Trazado_7" data-name="Trazado 7" d="M106.672,525.513v42.8H176.4c-7.424,21.414-30.284,35.948-54.585,35.948-39.738,0-64.867-29.681-64.867-65.069s25.717-65.069,65.455-65.069c20.029,0,37.495,9.681,47.055,24.268H237.5c-15.729-46.695-59.259-81.923-115.073-81.923-71.2,0-122.364,56.8-122.364,121.871S51.232,660.478,122.375,660.478s129.173-64.215,120.6-134.991H106.646Z" transform="translate(170.333 129.243)"/>
    <path id="Trazado_8" data-name="Trazado 8" class="cls-1" d="M967.7,146.325c-10.509,54.4-60.489,97.684-120.263,97.684-68.579,0-122.31-56.536-122.31-121.871S778.856,0,847.435,0c57.593,0,106.249,40.544,118.849,92.243H905.163C894.826,72,873.474,57.629,847.435,57.629a64.509,64.509,0,1,0,0,129.018c28.493,0,51.049-17.117,60.126-40.322Z" transform="translate(-90.963 279.33)"/>
    <path id="Trazado_9" data-name="Trazado 9" d="M895.707,421.848l-45.586,149.9-45.586-149.9H728.8V657.883h57.443v-126.3l38.723,126.3h50.313L914,531.585v126.3h57.444V421.848Z" transform="translate(-92.287 127.305)"/>
    <path id="Trazado_12" data-name="Trazado 12" d="M542.226,7.129V159.455a20.8,20.8,0,0,1-41.607,0V7.129H443.176V164.282a78.407,78.407,0,0,0,156.814,0V7.129H542.226Z" transform="translate(10.645 276.76)"/>
  </g>
</svg>
