<svg id="Grupo_8" data-name="Grupo 8" xmlns="http://www.w3.org/2000/svg" width="147.448" height="51.087" viewBox="0 0 147.448 51.087">
  <defs>
    <style>
      .cls-1 {
        fill: #fff;
      }
    </style>
  </defs>
  <path id="Trazado_85" data-name="Trazado 85" class="cls-1" d="M1333.5,626.571c-8.271,0-14.292-5.9-14.292-14.021,0-8.075,5.977-13.978,14.336-13.978,6.677,0,12.041,4.018,13.348,10.126h-5.239a8.313,8.313,0,0,0-8.153-5.449,9.33,9.33,0,0,0,0,18.655,8.258,8.258,0,0,0,8.234-5.9h5.283c-1.313,6.437-6.677,10.577-13.517,10.577" transform="translate(-1285.036 -587.094)"/>
  <path id="Trazado_86" data-name="Trazado 86" class="cls-1" d="M1386.86,620.966a9.293,9.293,0,0,1-.125,1.559h-14.867a5.094,5.094,0,0,0,5.408,4.712,4.832,4.832,0,0,0,4.508-2.461h4.789c-1.313,4.059-5,6.56-9.622,6.56-6.39,0-9.791-4.837-9.791-10,0-5.206,3.482-10.043,9.909-10.043,5.814,0,9.791,3.976,9.791,9.674m-4.67-1.554a5.19,5.19,0,0,0-10.234,0Z" transform="translate(-1303.008 -591.86)"/>
  <path id="Trazado_87" data-name="Trazado 87" class="cls-1" d="M1406.015,597.326a2.808,2.808,0,1,1-1.113,5.394,2.788,2.788,0,0,1-1.713-2.608,2.7,2.7,0,0,1,.194-1.088,2.644,2.644,0,0,1,.613-.92,2.7,2.7,0,0,1,.925-.6A2.734,2.734,0,0,1,1406.015,597.326Zm-2.376,9.142h4.708v19.227h-4.708Z" transform="translate(-1316.511 -586.625)"/>
  <path id="Trazado_88" data-name="Trazado 88" class="cls-1" d="M1423.818,597.589v11.4a7.817,7.817,0,0,1,6.552-2.829c5.364,0,9.416,4.1,9.416,9.962,0,5.822-4.1,10.087-9.584,10.087a7.779,7.779,0,0,1-6.552-2.872l-.488,2.46h-4.051v-28.2Zm0,18.529a5.686,5.686,0,0,0,.375,2.258,5.887,5.887,0,0,0,1.232,1.931,5.749,5.749,0,0,0,4.126,1.756,5.656,5.656,0,0,0,5.652-5.945,5.53,5.53,0,0,0-5.652-5.821,5.61,5.61,0,0,0-4.12,1.672,5.679,5.679,0,0,0-1.238,1.908A5.6,5.6,0,0,0,1423.818,616.118Z" transform="translate(-1322.479 -586.725)"/>
  <path id="Trazado_89" data-name="Trazado 89" class="cls-1" d="M1463.5,631.275c-3.645,0-7.121-1.806-7.121-5.7,0-4.551,3.845-6.15,7.984-6.15h5.32v-.86c0-2.255-1.882-3.363-3.97-3.363-1.719,0-3.564.737-3.889,2.5h-4.508c.531-4.51,4.508-6.479,8.6-6.479,4.789,0,8.434,2.46,8.434,7.542V625.7c0,1.066.494,1.681,1.513,1.681a.913.913,0,0,0,.331-.041v3.73a11.981,11.981,0,0,1-1.719.124c-2.051,0-4.014-.656-4.464-3.075A7.336,7.336,0,0,1,1463.5,631.275Zm1.35-8.773c-1.882,0-3.6.615-3.6,2.582,0,1.8,1.557,2.5,3.313,2.5,2.995,0,5.039-1.841,5.12-4.51V622.5Z" transform="translate(-1336.447 -591.837)"/>
  <path id="Trazado_90" data-name="Trazado 90" class="cls-1" d="M1497.568,597.588h-4.708v28.2h4.708Z" transform="translate(-1350.12 -586.725)"/>
  <path id="Trazado_91" data-name="Trazado 91" class="cls-1" d="M1286.326,605.745c0-12.874,7.69-18.338,7.69-21.533,0-4.233-4.7-4-4.7-4-14.236,0-24.764,11.738-24.764,25.533,0,14.112,10.528,25.549,25.433,25.549a3.885,3.885,0,0,0,1.557-.268,3.834,3.834,0,0,0,1.325-.866,3.9,3.9,0,0,0,.875-1.322,4.031,4.031,0,0,0,.275-1.56c0-3.336-7.69-8.882-7.69-21.54" transform="translate(-1264.55 -580.212)"/>
</svg>
