<svg xmlns="http://www.w3.org/2000/svg" width="257.264" height="84.587" viewBox="0 0 257.264 84.587"><defs><style>.a{fill:#fff;}</style></defs><path class="a" d="M63.575,0H7.408A7.41,7.41,0,0,0,0,7.354V77.233a7.427,7.427,0,0,0,7.408,7.354H63.575a7.41,7.41,0,0,0,7.408-7.354V7.354A7.427,7.427,0,0,0,63.575,0M52.1,70.606H48a1.782,1.782,0,0,1-1.778-1.535S45.176,47.062,45.176,45.58c-.269,2.1-6.681,23.571-6.681,23.571a1.982,1.982,0,0,1-1.94,1.374H34.4a1.959,1.959,0,0,1-1.94-1.374s-6.3-21.47-6.627-23.571c0,1.1-1.131,23.491-1.131,23.491a1.824,1.824,0,0,1-1.778,1.535H18.884a1.384,1.384,0,0,1-1.347-1.535l2.99-34.212a1.824,1.824,0,0,1,1.778-1.536h4.741a1.959,1.959,0,0,1,1.94,1.374S35.317,57.056,35.505,59c.162-1.886,6.546-24.3,6.546-24.3a1.959,1.959,0,0,1,1.94-1.374h4.714a1.824,1.824,0,0,1,1.778,1.536l2.936,34.212a1.35,1.35,0,0,1-1.32,1.535m2.478-45.1a3.6,3.6,0,0,1-4.9,1.1L39.33,20.662h0L35.559,18.48l-8.593,4.9h0l-5.684,3.26a3.59,3.59,0,0,1-4.9-1.1A3.5,3.5,0,0,1,17.86,20.8l10.371-5.9,5.5-3.125.242-.108.323-.135.216-.081.485-.108h.162l.512-.054h.216l.431.081.269.054.377.135.216.108.269.135,10.021,5.765h0l5.63,3.26a3.536,3.536,0,0,1,1.482,4.768"/><path class="a" d="M36.254,29.385h-1.8A1.244,1.244,0,0,1,33.21,28.2V5.409A1.253,1.253,0,0,1,34.449,4.17h1.8a1.248,1.248,0,0,1,1.212,1.239V28.2a1.219,1.219,0,0,1-1.212,1.185" transform="translate(56.253 7.063)"/><path class="a" d="M47.738,25.116c-1.051,0-1.509-.458-1.509-1.536V13.155c0-1.67-.7-2.8-2.478-2.8S40.9,11.647,40.9,13.775v9.779c0,1.078-.458,1.536-1.509,1.536H38.256c-1.1,0-1.536-.458-1.536-1.536V8.387c0-1.051.458-1.482,1.536-1.482h.189a1.719,1.719,0,0,1,1.832,1.32l.081.216A5.661,5.661,0,0,1,44.694,6.69c3.96,0,5.684,1.94,5.684,6.007V23.581c0,1.078-.458,1.536-1.509,1.536H47.738Z" transform="translate(62.199 11.332)"/><path class="a" d="M52.884,26.137c0,1.051-.458,1.482-1.509,1.482H50.163c-3.394,0-4.741-1.347-4.741-4.8V13.018H44.4c-1.051,0-1.509-.458-1.509-1.536v-.4c0-1.078.458-1.536,1.509-1.536h1.078l.566-2.909A1.549,1.549,0,0,1,47.766,5.26h.216c1.051,0,1.509.458,1.509,1.482v2.8h1.8c1.051,0,1.509.458,1.509,1.536v.4c0,1.078-.458,1.536-1.509,1.536h-1.8v9.7c0,1,.35,1.266,1.051,1.266h.781c1.051,0,1.509.431,1.509,1.482v.647Z" transform="translate(72.65 8.91)"/><path class="a" d="M57.736,14.081c-.027-2.236-.377-3.933-2.721-3.933-1.913,0-2.963.835-3.044,3.933Zm2.694,3.475H51.944c.108,2.4,1.051,3.987,3.906,3.987a5.25,5.25,0,0,0,2.559-.593,1.592,1.592,0,0,1,.97-.35,1.432,1.432,0,0,1,1.051.485l.566.539a1.59,1.59,0,0,1,.539,1.078,1.238,1.238,0,0,1-.62,1.051,8.462,8.462,0,0,1-5.28,1.536c-5.819,0-8.055-3.017-8.055-9.4,0-5.63,1.751-9.186,7.3-9.186,4.984,0,7,2.344,7,9.375,0,1.051-.458,1.509-1.509,1.509" transform="translate(80.594 11.349)"/><path class="a" d="M65.3,25.116c-1.051,0-1.509-.458-1.509-1.536V13.155c0-1.67-.727-2.8-2.478-2.8s-2.855,1.293-2.855,3.421v9.779c0,1.078-.458,1.536-1.509,1.536H55.815c-1.1,0-1.536-.458-1.536-1.536V8.387c0-1.051.458-1.482,1.536-1.482H56a1.719,1.719,0,0,1,1.832,1.32l.081.216A5.661,5.661,0,0,1,62.254,6.69c3.96,0,5.684,1.94,5.684,6.007V23.581c0,1.078-.458,1.536-1.509,1.536H65.3Z" transform="translate(91.943 11.332)"/><path class="a" d="M67.937,15.224c-2.694,0-2.882,2.963-2.882,5.9,0,4.175.943,5.711,2.855,5.711s3.1-1.8,3.1-5.684S69.849,15.2,67.963,15.2M70.873,5.176c0-1.078.458-1.536,1.509-1.536h1.131c1.051,0,1.509.458,1.509,1.536v23.6c0,1.051-.458,1.482-1.509,1.482h-.189a1.712,1.712,0,0,1-1.832-1.293c-.108-.3,0,.027-.108-.269a5.377,5.377,0,0,1-4.364,1.751c-3.906,0-6.331-2.721-6.331-9.375,0-4.849,1.212-9.4,6.438-9.4A5.37,5.37,0,0,1,70.9,13.015V5.176Z" transform="translate(102.801 6.166)"/><path class="a" d="M77.535,14.081c-.027-2.236-.377-3.933-2.694-3.933-1.913,0-2.963.835-3.044,3.933h5.765Zm2.721,3.475H71.8c.108,2.4,1.051,3.987,3.906,3.987a5.25,5.25,0,0,0,2.559-.593,1.592,1.592,0,0,1,.97-.35,1.432,1.432,0,0,1,1.051.485l.566.539a1.59,1.59,0,0,1,.539,1.078,1.269,1.269,0,0,1-.593,1.051,8.462,8.462,0,0,1-5.28,1.536c-5.819,0-8.055-3.017-8.055-9.4,0-5.63,1.751-9.186,7.3-9.186,4.984,0,7,2.344,7,9.375,0,1.051-.458,1.509-1.509,1.509" transform="translate(114.268 11.349)"/><path class="a" d="M85.168,25.116c-1.078,0-1.509-.458-1.509-1.536V13.155c0-1.67-.7-2.8-2.478-2.8s-2.855,1.293-2.855,3.421v9.779c0,1.078-.458,1.536-1.509,1.536H75.686c-1.1,0-1.535-.458-1.535-1.536V8.387c0-1.051.458-1.482,1.535-1.482h.189a1.719,1.719,0,0,1,1.832,1.32l.081.216A5.661,5.661,0,0,1,82.124,6.69c3.96,0,5.684,1.94,5.684,6.007V23.581c0,1.078-.458,1.536-1.509,1.536H85.168Z" transform="translate(125.6 11.332)"/><path class="a" d="M92.5,7.885a1.379,1.379,0,0,1,.647,1.078,1.481,1.481,0,0,1-.566,1.078l-.458.458a1.681,1.681,0,0,1-1.131.566,2.2,2.2,0,0,1-.97-.3,3.491,3.491,0,0,0-1.7-.4c-2.505,0-3.448,2.02-3.448,5.442,0,3.8.862,5.63,3.718,5.63a3.767,3.767,0,0,0,1.7-.377,2.113,2.113,0,0,1,1.024-.35,1.434,1.434,0,0,1,1.051.512l.485.458a1.756,1.756,0,0,1,.566,1.131,1.3,1.3,0,0,1-.593,1.051,6.68,6.68,0,0,1-4.553,1.428c-5.28,0-7.758-3.26-7.758-9.482,0-5.307,2.371-9.105,7.812-9.105A7.065,7.065,0,0,1,92.5,7.885" transform="translate(136.373 11.349)"/><path class="a" d="M86.738,13.4c0-1.051.458-1.482,1.509-1.482h1.078c1.051,0,1.509.458,1.509,1.482V28.784c0,1.051-.458,1.482-1.509,1.482H88.246c-1.051,0-1.509-.458-1.509-1.482V13.4ZM86.63,5.186c0-1.078.458-1.536,1.509-1.536h1.32c1.051,0,1.509.458,1.509,1.536v2.1c0,1.078-.458,1.536-1.509,1.536h-1.32c-1.051,0-1.509-.431-1.509-1.536v-2.1Z" transform="translate(146.74 6.183)"/><path class="a" d="M99.207,17.522H97.294c-2.02,0-3.5.458-3.5,2.128a1.978,1.978,0,0,0,2.074,2.128,3.148,3.148,0,0,0,3.34-2.721V17.522Zm.431,5.953A5.741,5.741,0,0,1,95,25.281c-3.206,0-5.415-2.1-5.415-5.6s2.936-5.442,6.815-5.442h2.64l.189-.108V13.051c0-2.047-.943-2.613-3.26-2.613a7.965,7.965,0,0,0-2.909.593,2.477,2.477,0,0,1-.835.189,1.324,1.324,0,0,1-1.158-.862L90.8,9.791h0a1.666,1.666,0,0,1-.3-.889,1.287,1.287,0,0,1,.862-1.185,11.628,11.628,0,0,1,4.93-1c4.768,0,7.031,1.293,7.031,6.2V23.584c0,1.078-.458,1.536-1.536,1.536H101.6a1.75,1.75,0,0,1-1.832-1.293l-.108-.3Z" transform="translate(151.753 11.383)"/><path class="a" d="M50.937,23.017c-2.64,0-3.34,1.724-3.34,5.63s.673,5.711,3.34,5.711,3.394-1.67,3.394-5.711-.835-5.63-3.394-5.63m0,14.951c-5.711,0-7.6-3.475-7.6-9.321s1.913-9.267,7.6-9.267,7.6,3.5,7.6,9.267-1.94,9.321-7.6,9.321" transform="translate(73.412 32.827)"/><path class="a" d="M61.4,37.789c-1.051,0-1.509-.431-1.509-1.535V25.828c0-1.67-.727-2.8-2.478-2.8s-2.855,1.293-2.855,3.448v9.779c0,1.078-.458,1.535-1.509,1.535H51.915c-1.078,0-1.536-.431-1.536-1.535V21.087c0-1.051.458-1.482,1.536-1.482H52.1a1.719,1.719,0,0,1,1.832,1.32l.081.216a5.661,5.661,0,0,1,4.337-1.751c3.96,0,5.684,1.94,5.684,6.007V36.254c0,1.078-.458,1.535-1.509,1.535H61.4Z" transform="translate(85.337 32.844)"/><path class="a" d="M66.384,38.817c0,1.051-.458,1.482-1.509,1.482H63.663c-3.394,0-4.741-1.347-4.741-4.768V25.7H57.9c-1.051,0-1.509-.458-1.509-1.536v-.4c0-1.078.458-1.536,1.509-1.536h1.078l.566-2.909a1.549,1.549,0,0,1,1.724-1.374h.216c1.078,0,1.509.458,1.509,1.482v2.8h1.8c1.051,0,1.509.458,1.509,1.536v.4c0,1.078-.458,1.536-1.509,1.536h-1.8v9.7c0,1,.35,1.266,1.051,1.266h.781c1.051,0,1.509.431,1.509,1.482v.62Z" transform="translate(95.517 30.388)"/><path class="a" d="M71.119,26.744c-.027-2.236-.377-3.933-2.694-3.933-1.913,0-2.99.835-3.044,3.933h5.765Zm2.721,3.475H65.354c.108,2.4,1.051,3.987,3.906,3.987a5.25,5.25,0,0,0,2.559-.593,1.738,1.738,0,0,1,.97-.323,1.432,1.432,0,0,1,1.051.485l.566.539a1.59,1.59,0,0,1,.539,1.078,1.238,1.238,0,0,1-.62,1.051,8.534,8.534,0,0,1-5.28,1.535c-5.819,0-8.055-3.017-8.055-9.4,0-5.63,1.778-9.186,7.3-9.186,4.984,0,7,2.344,7,9.375,0,1.051-.458,1.482-1.509,1.482" transform="translate(103.309 32.844)"/><path class="a" d="M74.759,34.142l.4-.189L78.45,20.834a1.616,1.616,0,0,1,1.778-1.374h1.455c.862,0,1.266.323,1.266,1.051l-.108.566h.027L78.261,36.3h0a1.615,1.615,0,0,1-1.751,1.347h-3.1a1.669,1.669,0,0,1-1.8-1.374h0L67,21.076l-.081-.539c0-.754.377-1.078,1.266-1.078h1.482a1.676,1.676,0,0,1,1.778,1.374l3.287,13.281Z" transform="translate(113.354 32.963)"/><path class="a" d="M73.955,26.082c0-1.051.458-1.482,1.509-1.482h1.078c1.051,0,1.509.458,1.509,1.482V41.464c0,1.051-.458,1.482-1.509,1.482H75.463c-1.051,0-1.509-.458-1.509-1.482Zm-.135-8.216c0-1.078.458-1.536,1.509-1.536h1.32c1.051,0,1.509.458,1.509,1.536v2.1c0,1.078-.458,1.536-1.509,1.536h-1.32c-1.051,0-1.509-.431-1.509-1.536Z" transform="translate(125.041 27.661)"/><path class="a" d="M84.087,27.914c-2.721,0-2.909,2.963-2.909,5.9,0,4.175.943,5.711,2.855,5.711s3.1-1.8,3.1-5.684-1.158-5.953-3.044-5.953m2.936-10.021c0-1.078.458-1.536,1.509-1.536h1.131c1.051,0,1.509.458,1.509,1.536v23.6c0,1.051-.458,1.482-1.509,1.482h-.189a1.712,1.712,0,0,1-1.832-1.293c-.108-.3,0,.027-.108-.269a5.342,5.342,0,0,1-4.364,1.751c-3.933,0-6.331-2.721-6.331-9.375,0-4.849,1.212-9.4,6.438-9.4A5.37,5.37,0,0,1,87.05,25.7V17.866Z" transform="translate(130.157 27.661)"/><path class="a" d="M93.522,26.744c-.027-2.236-.377-3.933-2.721-3.933-1.913,0-2.963.835-3.044,3.933h5.765Zm2.721,3.475H87.784c.108,2.4,1.051,3.987,3.906,3.987a5.25,5.25,0,0,0,2.559-.593,1.806,1.806,0,0,1,.97-.323,1.432,1.432,0,0,1,1.051.485l.566.539a1.59,1.59,0,0,1,.539,1.078,1.238,1.238,0,0,1-.62,1.051,8.462,8.462,0,0,1-5.28,1.535c-5.846,0-8.055-3.017-8.055-9.4,0-5.63,1.778-9.186,7.3-9.186,4.957,0,7,2.344,7,9.375,0,1.051-.458,1.482-1.509,1.482" transform="translate(141.302 32.844)"/><path class="a" d="M97.457,23.017c-2.64,0-3.34,1.724-3.34,5.63s.673,5.711,3.34,5.711,3.394-1.67,3.394-5.711-.835-5.63-3.394-5.63m0,14.951c-5.711,0-7.6-3.475-7.6-9.321s1.913-9.267,7.6-9.267,7.6,3.5,7.6,9.267-1.94,9.321-7.6,9.321" transform="translate(152.211 32.827)"/><path class="a" d="M57.643,40.505v.162c0,.97-.431,1.374-1.428,1.374H54.761c-1.024,0-1.482-.458-1.536-1.482l-.593-15.921L47.784,40.721a1.7,1.7,0,0,1-1.832,1.347h-.943a1.7,1.7,0,0,1-1.832-1.347l-4.822-16L37.6,40.559c-.081,1.051-.539,1.482-1.562,1.482h-1.4c-1.024,0-1.428-.4-1.428-1.374v-.162l1.562-22.144c.054-1.051.512-1.482,1.589-1.482h2.074a1.741,1.741,0,0,1,1.8,1.374l5.28,17.456c1.832-5.927,3.34-11.557,5.2-17.456a1.716,1.716,0,0,1,1.8-1.374h2.1c1.051,0,1.535.458,1.562,1.482L57.67,40.505Z" transform="translate(56.253 28.592)"/></svg>