<svg xmlns="http://www.w3.org/2000/svg" xmlns:xlink="http://www.w3.org/1999/xlink" width="208.193" height="52.517" viewBox="0 0 208.193 52.517"><defs><style>.a,.c{fill:#fff;}.b{clip-path:url(#a);}.c{fill-rule:evenodd;}</style><clipPath id="a"><rect class="a" width="208.193" height="52.517"/></clipPath></defs><g class="b"><path class="a" d="M1911.045,579.638H1900.26v8.594h10.785Z" transform="translate(-1809.112 -579.282)"/><path class="a" d="M2028.681,579.638H2017.89v8.594h10.791Z" transform="translate(-1853.199 -579.282)"/><path class="c" d="M1846.714,628.8c-3.139-3.32-3.614-8.121-3.614-17.6,0-9.069.413-15,3.851-18.256a10.162,10.162,0,0,1,7.353-2.548c3.495,0,5.571.415,7.346,1.482v-12.8h10.785v52.218l-9.066.119-.3-1.956c-2.307,1.659-5.033,2.133-9.184,2.133A9.276,9.276,0,0,1,1846.714,628.8Zm14.936-17.248c0-8.713-.419-10.728-4.151-10.728-3.139,0-3.495,2.014-3.495,10.728,0,8.653.413,10.254,3.495,10.254C1861.175,621.8,1861.65,620.322,1861.65,611.55Z" transform="translate(-1787.688 -579.069)"/><path class="a" d="M1754.47,579.164h10.847v52.1H1754.47Z" transform="translate(-1754.47 -579.105)"/><path class="c" d="M1806.825,609.671c0-4.208-.706-7.527-2.369-9.365-1.838-2.074-5.333-3.32-10.016-3.32a47.019,47.019,0,0,0-13.392,2.371l2.488,8.476a24.633,24.633,0,0,1,10.2-1.422c1.3.178,2.37,1.364,2.426,4.445h-.65c-11.616,0-16.3,2.608-16.3,13.929,0,10.965,3.851,13.514,10.428,13.514,4.151,0,6.283-.653,7.884-2.134l.419,1.9,8.709-.237Zm-10.666,9.661.063,4.5c0,3.5-.538,5.275-3.851,5.275-2.257,0-2.732-1.245-2.732-5.157C1789.638,620.459,1790.057,619.332,1796.159,619.332Z" transform="translate(-1763.742 -585.784)"/><path class="c" d="M2070.915,609.671c0-4.208-.712-7.527-2.37-9.365-1.838-2.074-5.333-3.32-10.016-3.32a46.551,46.551,0,0,0-13.392,2.371l2.488,8.476a24.6,24.6,0,0,1,10.191-1.422c1.307.178,2.37,1.364,2.432,4.445h-.656c-11.61,0-16.293,2.608-16.293,13.929,0,10.965,3.851,13.514,10.428,13.514,4.152,0,6.283-.653,7.884-2.134l.413,1.9,8.715-.237Zm-10.609,9.661.063,4.5c0,3.5-.532,5.275-3.851,5.275-2.251,0-2.726-1.245-2.726-5.157,0-3.5.35-4.623,6.515-4.623Z" transform="translate(-1862.723 -585.784)"/><path class="a" d="M2028.681,597.935H2017.89v40.423h10.791Z" transform="translate(-1853.199 -586.14)"/><path class="a" d="M1979.79,598.374l9.009-.533.475,2.193c1.957-1.541,4.445-2.134,8.534-2.193v10.61c-4.8.119-7.171,1.541-7.171,6.994v22.82H1979.79Z" transform="translate(-1838.919 -586.105)"/><path class="c" d="M1954.135,609.671c0-4.208-.65-7.527-2.369-9.365-1.838-2.074-5.333-3.32-10.016-3.32a47.025,47.025,0,0,0-13.4,2.371l2.495,8.476a24.6,24.6,0,0,1,10.191-1.422c1.306.178,2.369,1.364,2.432,4.445h-.656c-11.616,0-16.293,2.608-16.293,13.929,0,10.965,3.851,13.514,10.428,13.514,4.145,0,6.283-.653,7.884-2.134l.413,1.9,8.709-.237Zm-10.666,9.661.056,4.5c0,3.5-.531,5.275-3.851,5.275-2.251,0-2.726-1.245-2.726-5.157C1936.949,620.459,1937.361,619.332,1943.469,619.332Z" transform="translate(-1818.954 -585.784)"/><path class="a" d="M1911.045,597.935H1900.26v40.423h10.785Z" transform="translate(-1809.112 -586.14)"/></g></svg>