<svg xmlns="http://www.w3.org/2000/svg" width="301.835" height="62.182" viewBox="0 0 301.835 62.182"><defs><style>.a{fill:#fff;}</style></defs><path class="a" d="M156.227,48.576c.617,0,.793.176.793.793v2.463c0,.617-.176.794-.793.794h-12.1c-.617,0-.793-.177-.793-.794V32.871c0-.617.176-.793.793-.793h3.2c.617,0,.794.176.794.793V48.576Z" transform="translate(-71.597 -16.023)"/><path class="a" d="M183.866,32.871c0-.617.176-.793.793-.793h3.2c.613,0,.789.176.789.793V51.833c0,.617-.176.789-.789.789h-3.2c-.617,0-.793-.176-.793-.789Z" transform="translate(-91.841 -16.023)"/><path class="a" d="M216.725,48.489c3.758,0,5.721-3.317,5.721-6.514,0-3.257-1.963-6.514-5.721-6.514-3.638,0-5.725,3.257-5.725,6.514,0,3.2,2.083,6.514,5.725,6.514m0-17.171a10.653,10.653,0,1,1-10.564,10.741V41.97a10.671,10.671,0,0,1,10.565-10.653" transform="translate(-102.978 -15.643)"/><path class="a" d="M264.708,51.455c0,.617-.176.794-.793.794h-3.2c-.612,0-.788-.177-.788-.794V31.585c0-.2.056-.264.264-.264h.292a.839.839,0,0,1,.562.264l12.443,11.242V32.493c0-.617.177-.788.794-.788h3.2c.617,0,.789.176.789.788v19.87c0,.2-.056.265-.265.265h-.292a.819.819,0,0,1-.557-.265L264.708,40.975Z" transform="translate(-129.832 -15.645)"/><path class="a" d="M328.472,37.885c0,2.334,2.645,2.928,5.772,3.327,3.67.487,6.8,1.619,6.8,5.433,0,3.044-2.362,5.883-7.252,5.883a12.906,12.906,0,0,1-7.674-2.19c-.283-.172-.283-.311-.116-.627l.538-.909c.2-.311.311-.371.654-.172a11.508,11.508,0,0,0,6.31,1.9c2.617,0,5.349-.854,5.349-3.809,0-2.361-2.134-3.127-5.86-3.637-3.1-.427-6.707-1.369-6.707-5.145,0-2.19,1.645-5.94,7.166-5.94a12.355,12.355,0,0,1,6.992,2.162c.311.172.255.343.139.626l-.538.881c-.172.311-.343.427-.627.2A10.045,10.045,0,0,0,333.729,34c-4.319,0-5.255,2.417-5.255,3.892" transform="translate(-162.78 -15.984)"/><path class="a" d="M381.164,32.625c.371,0,.427.116.427.455v1.137c0,.338-.084.454-.427.454h-6.825v17.4c0,.338-.088.454-.427.454h-1.364c-.367,0-.455-.116-.455-.454v-17.4h-6.8c-.367,0-.455-.116-.455-.454V33.08c0-.343.116-.455.455-.455Z" transform="translate(-182.239 -16.296)"/><path class="a" d="M408.188,44.339V33.078c0-.371.116-.455.455-.455h1.336c.339,0,.455.116.455.455V44.194c0,4.723,2.389,6.714,5.8,6.714s5.8-1.99,5.8-6.714V33.079c0-.343.116-.455.454-.455h1.369c.338,0,.427.116.427.455V44.34c0,5.66-3.41,8.559-8.045,8.559s-8.05-2.9-8.05-8.559" transform="translate(-203.891 -16.295)"/><path class="a" d="M457.52,34.559V50.593h5.145c4.635,0,7.651-3.754,7.651-8.017,0-4.292-3.016-8.017-7.651-8.017Zm5.177-1.935a9.74,9.74,0,0,1,9.9,9.579q0,.187,0,.373a9.737,9.737,0,0,1-9.517,9.951c-.126,0-.25,0-.379,0h-6.964c-.311,0-.455-.116-.455-.454V33.079c0-.343.116-.455.455-.455Z" transform="translate(-227.413 -16.295)"/><path class="a" d="M503.268,33.08c0-.343.111-.455.454-.455h1.362c.343,0,.427.116.427.455V52.074c0,.343-.088.454-.427.454h-1.364c-.343,0-.454-.111-.454-.454Z" transform="translate(-251.383 -16.296)"/><path class="a" d="M531.684,50.543c4.491,0,7.908-4.069,7.908-8.333,0-4.292-3.41-8.328-7.908-8.328-4.435,0-7.908,4.036-7.908,8.328,0,4.264,3.47,8.333,7.908,8.333m0-18.651a10.322,10.322,0,1,1-10.179,10.464v-.145a10.292,10.292,0,0,1,10.18-10.318" transform="translate(-260.493 -15.93)"/><path class="a" d="M575.372,37.882c0,2.334,2.645,2.928,5.772,3.327,3.67.482,6.8,1.619,6.8,5.433,0,3.044-2.361,5.883-7.252,5.883a12.928,12.928,0,0,1-7.678-2.19c-.283-.172-.283-.311-.112-.627l.539-.909c.2-.311.311-.371.654-.172a11.508,11.508,0,0,0,6.31,1.9c2.617,0,5.349-.854,5.349-3.809,0-2.361-2.134-3.127-5.86-3.637-3.1-.427-6.707-1.369-6.707-5.145,0-2.19,1.647-5.943,7.168-5.943a12.352,12.352,0,0,1,6.991,2.162c.311.172.255.343.14.626l-.539.881c-.172.311-.343.427-.622.2a10.048,10.048,0,0,0-5.688-1.879c-4.319,0-5.261,2.421-5.261,3.9" transform="translate(-286.105 -15.981)"/><path class="a" d="M44.218,14.244a25.323,25.323,0,0,0-6.5-4.61A4.213,4.213,0,0,1,36.08,6.6a13.589,13.589,0,0,1,.646-4.044L29.764,5.5c-.24-.16-.475-.32-.7-.485A24.7,24.7,0,0,1,24.294,0h-.005a24.753,24.753,0,0,1-4.775,5.01c-.22.165-.46.325-.7.485L11.851,2.558A13.729,13.729,0,0,1,12.5,6.6,4.2,4.2,0,0,1,10.85,9.635h-.005a25.4,25.4,0,0,0-6.491,4.6C.44,18.473-1.322,26.206,1.12,31.541c.1.21.906,1.572.906,1.572,1.687-2.733,3.118-2.9,3.118-2.9-2,3.939-2.4,11.116,1.632,15.941a53.894,53.894,0,0,0,8.433,7.5,105.151,105.151,0,0,1,9.074,8.528s5.756-5.921,9.079-8.528a54.15,54.15,0,0,0,8.433-7.5c4.024-4.83,3.634-12,1.627-15.946,0,0,1.436.17,3.118,2.9,0,0,.811-1.361.906-1.572C49.889,26.216,48.132,18.483,44.218,14.244ZM24.289,50.03a16.948,16.948,0,0,1-5.22-2.092l5.22-2.362,5.22,2.362a16.788,16.788,0,0,1-5.221,2.092Zm13.889-21.9A8.262,8.262,0,0,1,39.909,33.1c0,2.978-2.022,6.577-2.022,6.577l-2.272-2.322s.9,3.824-2.718,7.838c-.3.33-.616.606-.926.9L25.57,43.2V40.961c1.612-1.256,4.144-3.348,4.144-4.1v-.005l-.14-7.457c.065.005.13.01.2.01,3.113.055,6.2-3.478,6.2-3.478a.751.751,0,0,0,.21-.546c-.01-.42-.365-.841-.781-.746l-6.842,1.832a.8.8,0,0,0-.586.365.834.834,0,0,0-.14.646l.35,8.674c-1.351-.26-2.538.415-3.889.415s-2.543-.676-3.9-.42l.35-8.664a.815.815,0,0,0-.14-.646.789.789,0,0,0-.586-.365l-6.842-1.832c-.415-.1-.771.325-.781.746a.769.769,0,0,0,.21.546s3.088,3.534,6.2,3.478c.07,0,.135-.005.2-.01l-.14,7.447-.005.005c0,.736,2.4,2.763,4,4.029v2.377l-6.256,2.828c-.31-.29-.626-.566-.926-.9-3.624-4.014-2.718-7.838-2.718-7.838L10.7,39.679S8.678,36.086,8.678,33.1a8.237,8.237,0,0,1,1.732-4.975,5,5,0,0,1-3.238-5.576c.6-2.578,3.453-4.119,6.381-3.443a5.839,5.839,0,0,1,3.213,1.952l.02-.02s-.155-2.943-4.715-5.275c5.936-1.231,8.674-.34,10.35.751L24.3,13.258l1.881,3.258c1.677-1.091,4.414-1.982,10.35-.751-4.56,2.332-4.715,5.275-4.715,5.275l.02.02a5.85,5.85,0,0,1,3.213-1.952c2.928-.676,5.786.866,6.381,3.443A5.036,5.036,0,0,1,38.177,28.128Z" transform="translate(0 0)"/><path class="a" d="M143.2,93.165c-.1,0-.134-.027-.134-.134V87.366c0-.1.035-.134.134-.134h2.052c.966,0,2.078.4,2.078,1.646a1.332,1.332,0,0,1-.966,1.228v.009a1.552,1.552,0,0,1,1.188,1.415c0,1.2-.966,1.637-2.087,1.637H143.2Zm2.206-3.315c.73,0,1.246-.365,1.246-.916,0-.779-.569-1.126-1.441-1.126h-1.476V89.85Zm.009,2.74c1.027,0,1.451-.414,1.451-1.126,0-.578-.593-1.051-1.374-1.051h-1.752v2.18h1.678Z" transform="translate(-71.463 -43.573)"/><path class="a" d="M154.436,87.366c-.058-.1-.035-.134.059-.134h.484c.085,0,.128.035.178.134l1.833,2.848,1.824-2.848c.067-.111.1-.134.187-.134h.467c.1,0,.111.044.059.134l-2.212,3.476v2.189c0,.1-.035.134-.134.134H156.8c-.1,0-.134-.035-.134-.134V90.842Z" transform="translate(-77.125 -43.573)"/><path class="a" d="M178.311,92.844a.139.139,0,0,1-.054.187.141.141,0,0,1-.075.017h-.942c-.134,0-.178-.044-.263-.2l-.5-1.019H173.95l-.508,1.019c-.076.16-.128.2-.263.2h-.939a.141.141,0,0,1-.129-.2l2.926-5.648c.067-.128.093-.2.16-.2h.027c.067,0,.093.076.169.2Zm-3.1-3.826-.851,1.78h1.713l-.851-1.78Z" transform="translate(-85.962 -43.453)"/><path class="a" d="M188.663,90.81v2.152c0,.16-.041.2-.2.2h-.8c-.16,0-.2-.044-.2-.2V87.436c0-.16.05-.2.2-.2h2.087c.983,0,2.145.406,2.145,1.78s-1.162,1.8-2.145,1.8Zm1.042-1.01c.738,0,1.019-.3,1.019-.788s-.28-.779-1.019-.779h-1.042V89.8h1.042Z" transform="translate(-93.635 -43.573)"/><path class="a" d="M200.651,90.81v2.152c0,.16-.041.2-.2.2h-.8c-.161,0-.2-.044-.2-.2V87.436c0-.16.05-.2.2-.2h2.087c.983,0,2.145.406,2.145,1.78s-1.162,1.8-2.145,1.8Zm1.042-1.01c.738,0,1.019-.3,1.019-.788s-.28-.779-1.019-.779h-1.042V89.8h1.042Z" transform="translate(-99.624 -43.573)"/><path class="a" d="M215.129,92.14c.16,0,.2.05.2.2v.619c0,.15-.044.2-.2.2h-3.484c-.161,0-.2-.044-.2-.2V87.436c0-.16.044-.2.2-.2h.8c.16,0,.2.044.2.2v4.7Z" transform="translate(-105.615 -43.573)"/><path class="a" d="M224.629,87.011a3.079,3.079,0,1,1-3.044,3.114v-.035a3.084,3.084,0,0,1,3.044-3.079Zm0,5.113a2.046,2.046,0,1,0-1.824-2.034,1.919,1.919,0,0,0,1.824,2.034Z" transform="translate(-110.682 -43.462)"/><path class="a" d="M235.832,87.43a.14.14,0,0,1,.061-.189.142.142,0,0,1,.067-.016h.94c.134,0,.187.044.263.2l1.771,3.561L240.7,87.43c.085-.16.128-.2.262-.2h.943a.138.138,0,0,1,.145.13.136.136,0,0,1-.017.074l-2.915,5.647c-.076.128-.1.2-.169.2h-.026c-.067,0-.085-.076-.161-.2Z" transform="translate(-117.791 -43.569)"/><path class="a" d="M251.193,87.43c0-.16.041-.2.2-.2h.8c.161,0,.2.05.2.2v5.528c0,.16-.044.2-.2.2h-.8c-.16,0-.2-.044-.2-.2Z" transform="translate(-125.471 -43.57)"/><path class="a" d="M259.051,92.853c0,.16-.05.2-.2.2h-.8c-.161,0-.2-.044-.2-.2V87.087c0-.058.018-.076.076-.076H258a.23.23,0,0,1,.143.067l3.689,3.622V87.326c0-.16.044-.2.2-.2h.788c.161,0,.213.044.213.2v5.767c0,.058-.018.076-.076.076h-.076a.224.224,0,0,1-.15-.076l-3.68-3.645v3.4Z" transform="translate(-128.794 -43.462)"/></svg>