<svg xmlns="http://www.w3.org/2000/svg" width="128.166" height="57.812" viewBox="0 0 128.166 57.812"><defs><style>.a{fill:#fff;}.a,.b{fill-rule:evenodd;}</style></defs><path class="a" d="M895.028,575.215v3.261c-3.45-3.4-9.8-3.261-9.8-3.261H860.884v11.931c-6.271-8.581-14.493-12.312-25.211-12.312-16.2,0-30.2,12.847-30.2,29.049s14,28.763,30.2,28.763c10.719,0,20.092-4.6,25.212-13.177v12.267h14.982V611.642l14.119,20.093h31.694V588.181h11.956V575.215Z" transform="translate(-805.471 -574.834)"/><path class="b" d="M890.247,608.486h-4.9V595.951h5.042s6.483-.216,6.41,5.979A6.17,6.17,0,0,1,890.247,608.486Zm9.8,8.5c13.124-5.25,12.019-16.933,11.251-20.89h3.875v39.777ZM843,597.563a17.179,17.179,0,0,0-1.784,4.037q-1.312-.161-2.614-.388a13.019,13.019,0,0,1,3.755-3.538Q842.678,597.613,843,597.563Zm-3.174,14.668a40.527,40.527,0,0,0,.316,4.863q-1.98.252-3.927.7a19,19,0,0,1-.854-5.561Zm-4.465-.576a20.046,20.046,0,0,1,.718-5.2,37.207,37.207,0,0,0,3.988.776,41.045,41.045,0,0,0-.245,4.425Zm4.858,6.009a24.817,24.817,0,0,0,.965,4.186c-.957.116-1.876.257-2.692.4a14.87,14.87,0,0,1-2.091-3.909Q838.3,617.908,840.223,617.664Zm-.085-11.005a36.611,36.611,0,0,1-3.892-.755,16.244,16.244,0,0,1,1.993-4.171c.84.15,1.8.3,2.812.428A30.03,30.03,0,0,0,840.138,606.658Zm.648-8.58a15.175,15.175,0,0,0-2.808,3.022q-1-.183-1.987-.4A14.272,14.272,0,0,1,840.786,598.078Zm-5.807,3.541q.233-.231.473-.451c.324.076,1.115.253,2.173.453a16.862,16.862,0,0,0-1.941,4.136,27.67,27.67,0,0,1-3.079-1.01A14.465,14.465,0,0,1,834.979,601.619Zm-2.648,3.637a27.976,27.976,0,0,0,3.193,1.052,20.629,20.629,0,0,0-.736,5.346h-4.021A14.324,14.324,0,0,1,832.332,605.256Zm-1.557,6.975h4.014a19.529,19.529,0,0,0,.868,5.694,28.129,28.129,0,0,0-3.051.917A14.282,14.282,0,0,1,830.775,612.231Zm4.2,9.739a14.493,14.493,0,0,1-2.076-2.623,27.689,27.689,0,0,1,2.938-.875,15.52,15.52,0,0,0,2.023,3.888c-.858.159-1.561.308-2.015.408Q835.4,622.386,834.979,621.97Zm1.446,1.263q.913-.194,1.83-.358a13.817,13.817,0,0,0,2.871,2.738A14.224,14.224,0,0,1,836.425,623.233Zm6.049,2.7.061-.135a11.712,11.712,0,0,1-3.636-3.036q1.236-.208,2.481-.357a10.232,10.232,0,0,0,2.139,3.685Q843,626.032,842.475,625.933Zm2.392.244c-.153,0-.308,0-.461-.013l.038-.06c-.094-.059-1.384-.909-2.48-3.762q1.447-.157,2.9-.173Zm0-4.585c-1.011.008-2.073.082-3.106.193a23.175,23.175,0,0,1-.976-4.19q2.033-.23,4.082-.259Zm0-4.831q-2.085.028-4.159.263a40.781,40.781,0,0,1-.3-4.793h4.461Zm0-5.107H840.4a39.686,39.686,0,0,1,.245-4.351,37.2,37.2,0,0,0,4.219.281Zm0-4.643a36.989,36.989,0,0,1-4.15-.277,29.526,29.526,0,0,1,.931-4.505,31.821,31.821,0,0,0,3.219.2Zm0-5.154q-1.527-.019-3.047-.188a15.287,15.287,0,0,1,1.943-4.2q.55-.051,1.1-.06Zm14.675,9.8h-4.3a20.672,20.672,0,0,0-.719-5.286,35.053,35.053,0,0,0,3.448-1.121A14.3,14.3,0,0,1,859.542,611.655Zm-9.643,5.352a40.934,40.934,0,0,0,.305-4.775h4.463a19.008,19.008,0,0,1-.812,5.422A39.173,39.173,0,0,0,849.9,617.006Zm3.774,1.2a14.873,14.873,0,0,1-2.162,4.078q-1.324-.266-2.665-.435a24.893,24.893,0,0,0,.975-4.267A38.5,38.5,0,0,1,853.674,618.2Zm-4.69-16.038q1.4-.183,2.783-.471a16.234,16.234,0,0,1,2.04,4.266,34.427,34.427,0,0,1-3.907.747A30.091,30.091,0,0,0,848.984,602.164Zm1.222,9.491a41.117,41.117,0,0,0-.238-4.377,35.07,35.07,0,0,0,4-.764,20.161,20.161,0,0,1,.7,5.141Zm5.125-10.036a14.5,14.5,0,0,1,2.367,3.118,34.612,34.612,0,0,1-3.333,1.08,16.828,16.828,0,0,0-1.994-4.252c1.365-.306,2.218-.578,2.237-.583l-.014-.044C854.845,601.156,855.092,601.381,855.331,601.619Zm-1.225-1.09c-.392.113-1.124.313-2.086.522a15.075,15.075,0,0,0-2.937-3.1A14.262,14.262,0,0,1,854.106,600.529Zm-6.466-2.908-.014.027a12.811,12.811,0,0,1,3.778,3.533q-1.286.259-2.588.424A17.053,17.053,0,0,0,847,597.526C847.218,597.553,847.43,597.585,847.64,597.621Zm-2.2-.209c.272.005.542.018.811.038a15.114,15.114,0,0,1,1.962,4.227c-.882.1-1.815.162-2.772.178Zm0,5.019q1.476-.026,2.945-.194a29.574,29.574,0,0,1,.935,4.541,35.133,35.133,0,0,1-3.88.234Zm0,5.156a36.214,36.214,0,0,0,3.948-.237,39.949,39.949,0,0,1,.24,4.305h-4.188Zm0,4.645h4.184a41.145,41.145,0,0,1-.293,4.716q-1.939-.189-3.891-.189Zm0,5.1c1.216,0,2.492.057,3.817.186a23.17,23.17,0,0,1-.985,4.258q-1.411-.156-2.832-.181Zm.189,8.84-.189,0v-4.005c.905.015,1.79.075,2.63.163-1.1,2.858-2.39,3.711-2.483,3.77Zm.847-.052a10.122,10.122,0,0,0,2.174-3.721c.892.109,1.721.247,2.46.388a11.71,11.71,0,0,1-3.616,3.01l.081.178Q847.034,626.069,846.478,626.121Zm2.251-.386a13.746,13.746,0,0,0,3.016-2.821c.808.171,1.47.337,1.936.463A14.349,14.349,0,0,1,848.729,625.736Zm5.518-2.8q-1.049-.3-2.116-.53a15.486,15.486,0,0,0,2.109-4.079c1.059.246,2.139.542,3.23.9A14.452,14.452,0,0,1,854.247,622.938Zm3.518-4.218q-1.651-.547-3.346-.94a19.621,19.621,0,0,0,.825-5.549h4.29A14.287,14.287,0,0,1,857.765,618.72Z" transform="translate(-814.952 -582.749)"/></svg>