<svg xmlns="http://www.w3.org/2000/svg" width="171.5" height="77.35" viewBox="0 0 171.5 77.35"><defs><style>.a{fill:#fff;}</style></defs><path d="M37.187,55.233c-1.322,1.066-7.315,5.768-9.7,6.008A22.531,22.531,0,0,1,19.447,60.2c-1.006-.556-7.39-5.483-9.1-8.908s-4.822-9.4-5.678-10.98A72.627,72.627,0,0,1,.16,23.057c-.451-5.693,0-5.573.8-6.76s4-5.483,4.912-6.579S13.529,1.893,19.312.526a37.087,37.087,0,0,1,10.74.391c1.082.481,6.744,2.614,7.511,3,1.833.736,7.33,6.384,7.631,8.277a35.359,35.359,0,0,1-.781,8.472s5.768-2.043,8.171-1.652A30.283,30.283,0,0,1,61.4,23.057s4.927-4.807,6.744-6.444a17.394,17.394,0,0,1,13.624-3,9.013,9.013,0,0,1,6.865,5.167s7.511-1.292,10.845-.18a10.124,10.124,0,0,1,5.152,4.611s7.33-5.257,12.017-6.008,8.352-1.352,10.89,0c0,0,2.659-8.562,5.077-11.131A27.038,27.038,0,0,1,140.832.841,19.527,19.527,0,0,1,146.585,0c1.247.105,3.68,3.184,4.206,7.676.481,4.056-2.373,15.952-2.373,15.952a31.137,31.137,0,0,1,4.611-2.193,16.523,16.523,0,0,1,5.6,0c.751.24,7.075,2.433,8.427,4.416s4.281,5.092,4.356,7.616.27,6.519-.736,9.013-2.343,6.714-3,7.646c-2.734,4.4-8.247,8.5-12.017,9.463a18.19,18.19,0,0,1-10.154,0c-2.569-.586-4.762-3.169-5.813-3.981-1.938-1.532-3.365-1.637-3.44-1.082s1.157,1.983,1.4,3.3c.406,2.373,1.127,3-1.1,6.008a9.6,9.6,0,0,1,.345,4.506,12.107,12.107,0,0,1-4.071,5.438,13.519,13.519,0,0,1-7.856,2.358A15.982,15.982,0,0,1,116.047,72s-2.058.361-5.332.736-7.631.391-10.515-3.109c0,0-3.605,3.5-9.013-.105,0,0-2.118,3.605-7.811.661a7.811,7.811,0,0,1-8.832,0,8.036,8.036,0,0,1-9.6,0s0,2.509-5.8,5.152c-5.257,2.388-9.689,2.478-12.272,1.2a15.291,15.291,0,0,1-7.2-8.607c-1.382-2.824-.105-10.079,3.785-12.3Z" transform="translate(0.019 0)"/><path class="a" d="M31.464,52.392a8.832,8.832,0,0,1-2.313-4.326,7.21,7.21,0,0,1,.841-5.3,13.519,13.519,0,0,1,9.268-6.474,6.82,6.82,0,0,1,4.912,1.5,1.5,1.5,0,0,1,.511.886.646.646,0,0,1-.12.436c-.736.991-3.109.886-3.785.646s-1.637.09-3,1.5a5.272,5.272,0,0,0-1.712,3.62,5.528,5.528,0,0,0,1.622,4.041l.165.15c1.818,1.682,3,1.367,3.725.931s1.337-.991,1.4-1.352a1.667,1.667,0,0,0-.586-1.2,2.313,2.313,0,0,0-.916-.586,2.7,2.7,0,0,1-.811-.376.991.991,0,0,1-.285-.541.9.9,0,0,1,.165-.526c.466-.661,3.83-1.412,4.611-1.352a4.071,4.071,0,0,1,2.268,1.112,3.77,3.77,0,0,1,1.036,1.938c.5,3.545-3.86,6.008-8.141,7.405a9.013,9.013,0,0,1-8.847-2.133Z" transform="translate(14.575 18.208)"/><path class="a" d="M86.181,53.422c-2.824.12-6.234-.991-6.774-2.884a1.652,1.652,0,0,1,.165-1.5,1.938,1.938,0,0,1,1.5-.706,1.1,1.1,0,0,1,.33,0,5.152,5.152,0,0,1,1.2.751,3.455,3.455,0,0,0,.871.571,3.635,3.635,0,0,0,1.157,0H85.82c.09,0,.616,0,.661-.255s0-.225-.27-.3C83.342,48.09,80.2,46,79.992,43.809c-.3-3.605,3.755-5.828,5.558-6.534a7.345,7.345,0,0,1,2.463-.285,6.189,6.189,0,0,1,6.129,3.41,2.509,2.509,0,0,1-.27,2.493,3.365,3.365,0,0,1-2.463,1.337h-.3c-.841-.12-1.7-1.292-2.3-2.1a6.7,6.7,0,0,0-.646-.8,2.689,2.689,0,0,0-1.712-.541,1.727,1.727,0,0,0-1.051.33.961.961,0,0,0-.376.871,2.013,2.013,0,0,0,.856,1.5c.2.12.571.315,1.066.556,1.622.8,4.642,2.283,5.152,3.425a3.26,3.26,0,0,1,0,2.749,6.008,6.008,0,0,1-3.785,3,7.811,7.811,0,0,1-2.133.2Z" transform="translate(39.845 18.559)"/><path class="a" d="M55.813,50.456c-2.133,0-3-2.343-3-2.358l-.135-.376-.15.361a6.008,6.008,0,0,1-4.506,2.133,4.221,4.221,0,0,1-4.326-3.184c-1.818-5.167,1.968-9.238,3.575-10.38a3.725,3.725,0,0,1,1.908-.751,1.262,1.262,0,0,1,1.232.646l.105.2.135-.18A4.266,4.266,0,0,1,53.41,35.6h.406c2.178,0,2.614.826,3,1.667a6.2,6.2,0,0,1,0,2.554,11.656,11.656,0,0,0,0,2.6,5.333,5.333,0,0,0,1.592,2.734,3.29,3.29,0,0,1,1.142,1.908,3.169,3.169,0,0,1-.976,2.088A4.086,4.086,0,0,1,55.813,50.456Zm-7.1-11.626a4.6,4.6,0,0,0-.5,4.116A3,3,0,0,0,51.1,44.958h.09a6.865,6.865,0,0,0,.886-3.951c-.165-2.118-3.169-2.223-3.169-2.223h-.15Z" transform="translate(21.724 17.875)"/><path class="a" d="M68.706,50.59c-.421,0-.976-1.427-.841-4.251,0-1.021.135-2.058.225-3a13.654,13.654,0,0,0,0-3.545.436.436,0,0,0-.466-.24.376.376,0,0,0-.361.21c-.991,2.478-2.749,4.191-4.026,4.221h-.045c-.8-.075-1.292-1.622-1.667-2.749a3,3,0,0,0-.646-1.262c-.12-.105-.165-.135-.24-.135a.392.392,0,0,0-.2.105h0c.24,2.088.15,8.186-.541,9.1a2.824,2.824,0,0,1-1.772,1.187,1.021,1.021,0,0,1-.406-.075c-.421-.21-2.869-3-2.163-8.637a8.1,8.1,0,0,1,7.27-6.955,3.26,3.26,0,0,1,2.388.811,2.9,2.9,0,0,1,.991,2.3v.556l.24-.21A8.036,8.036,0,0,1,70.6,36.41h.391a2.343,2.343,0,0,1,1.833.766c.721.976.691,3,0,6.008-1.112,4.6-3.53,7.511-4.086,7.511Z" transform="translate(27.863 17.35)"/><path class="a" d="M102.387,47.075a10.079,10.079,0,0,1-1.652-.12c-3.425-.556-5.332-4.506-5.077-10.65.165-4.161.736-9.418,3.62-13.113s5.182-4.672,6.489-4.7a2.914,2.914,0,0,1,2.223.946v.09h.21a17.545,17.545,0,0,1,1.908-.165,7.811,7.811,0,0,1,6.008,2.193,10.71,10.71,0,0,1,2.328,8.1,20.354,20.354,0,0,1-3,8.907c-2.749,4.176-7.826,8.442-12.993,8.532Zm4.506-22.622c-.225.391-5.588,9.644-.526,12.588l.255.15.225-.135c.12-.075,11.551-7.03.571-12.663l-.376-.18Z" transform="translate(48.048 9.284)"/><path class="a" d="M87.764,48.716a1.757,1.757,0,0,1-1.5-.6c-1.307-1.592-.12-6.008.916-9.974l.18-.691c1.382-5.242,3.921-16.628,5.873-27.4.781-4.311,5.753-6.654,7.33-6.669A2.388,2.388,0,0,1,102.335,4a5.092,5.092,0,0,1,1.112,3.74c0,3.68-3.7,19.768-6.144,28.8-2.163,7.916-7.961,12.152-9.583,12.182Z" transform="translate(43.053 1.695)"/><path class="a" d="M64.986,42.707a1.848,1.848,0,0,1-1.637-.766,3,3,0,0,1,0-2.779,4.286,4.286,0,0,0,.18-.436c1.036-2.493,4.146-10.034,3.56-16.884,0-.466-.33-.511-.451-.511-.526,0-1.187.8-1.5,1.262-2.163,3.154-4.146,4.717-6.084,4.747h-.225c-1.337,0-2.388-2.118-2.839-3.921a20.038,20.038,0,0,1-.5-3.725.12.12,0,0,0-.24,0,9.719,9.719,0,0,0-.946,7.225,24.425,24.425,0,0,1,.8,8.156,6.219,6.219,0,0,1-5.993,5.468h-.451a4.506,4.506,0,0,1-3.35-1.5c-1.277-1.352-3.32-4.687-2.779-11.837.751-9.3,11.266-14.991,15.487-15.2h.421a5.3,5.3,0,0,1,4.056,1.5A6.008,6.008,0,0,1,63.9,18.192v.3l.27-.135A19.618,19.618,0,0,1,71.581,16.3a5.062,5.062,0,0,1,4.1,1.5c1.5,1.742,1.923,4.957,1.217,9.568C74.75,41.505,65.362,42.692,65.272,42.692Z" transform="translate(21.338 6.022)"/><path class="a" d="M95.281,17.508a4.6,4.6,0,0,0-3.124-3.3,7.631,7.631,0,0,0-2.448-.2c-6.339,0-17.214,4.506-21.12,12.678a8.412,8.412,0,0,0,0,8.217c2.223,3.83,7.646,5.933,10.62,6.159a11.523,11.523,0,0,0,1.247,0c5.3-.075,9.674-3.184,9.914-5.167.165-1.322-1.337-1.577-2.779-1.818a12.122,12.122,0,0,1-1.5-.315,14.165,14.165,0,0,1-4.176-1.727c2.509-.285,8.322-3.455,10.95-6.444a8.922,8.922,0,0,0,2.418-8.081Zm-9.013,5.363a27.459,27.459,0,0,0-7.2,7.24,3.921,3.921,0,0,1-1.712-3.44,6.354,6.354,0,0,1,1.082-3.154,6.609,6.609,0,0,1,5.032-2,3.605,3.605,0,0,1,2.794,1.352Z" transform="translate(33.929 7.021)"/><path class="a" d="M35.677,10.19a10.71,10.71,0,0,0-6.8-6.008,17.6,17.6,0,0,0-5.933-.961C13.926,3.356,6.3,10.656,4.688,17.4,2.8,25.316,9.54,41.3,15.834,50.326c2.418,3.455,5.107,5.182,7.961,5.137h0A7.225,7.225,0,0,0,27.851,54.1c1.667-1.232,3.921-4.221.285-10.38-1.051-1.772-4.221-6.865-6.294-11.161a15.2,15.2,0,0,0,3.905-1.1A18.025,18.025,0,0,0,34.4,23.574C36.864,19.053,37.269,13.93,35.677,10.19ZM16.825,12.5v-.18h.2a8.8,8.8,0,0,1,6.324,2.493,7.21,7.21,0,0,1,1.742,6.324,14.555,14.555,0,0,1-1.592,3.59,22.216,22.216,0,0,1-2.644,3.47C18.328,22.778,16.345,16.92,16.825,12.5Z" transform="translate(2.22 1.617)"/><path class="a" d="M47.477,20.154a7.511,7.511,0,0,0-6.91-3.77,10.169,10.169,0,0,0-6.1,1.953l-.075.09h-.12a5.332,5.332,0,0,0-1.006-.09c-3.275,0-7.3,3-9.148,6.865a14.781,14.781,0,0,0,1.112,13.864,9.283,9.283,0,0,0,8.021,4.777h0a16.028,16.028,0,0,0,13.519-8.8C49.64,29.9,49.91,24.209,47.477,20.154Zm-8.712,14.36-.12.135-.15-.09a9.508,9.508,0,0,1-4.506-6.82,5.062,5.062,0,0,1,.21-3.425A4.942,4.942,0,0,0,35.7,21.9a4.371,4.371,0,0,1,5.363,1.142,4.326,4.326,0,0,1,.766,2.163A12.663,12.663,0,0,1,38.765,34.514Z" transform="translate(11.524 8.221)"/><path class="a" d="M82.421,46.336H81.384c-.391,0-1.051.075-1.637.09A11.341,11.341,0,0,1,74.97,45.7a20.308,20.308,0,0,0,5.588-1.893,5.438,5.438,0,0,0,3-4.882c-.481-2.163-3.485-3.38-6.129-3.32h-.556a10.59,10.59,0,0,0-7.03,4.506,7.856,7.856,0,0,0-1.833,5.948c.391,1.878,1.968,3.245,4.506,3.966a11.912,11.912,0,0,0,3.38.406,8.667,8.667,0,0,0,7.255-3.545c.12-.2.165-.345.135-.406S83.037,46.321,82.421,46.336Zm-9.9-4.326a3.109,3.109,0,0,1,1.352-2.253,2.719,2.719,0,0,1,1.5-.436c1.082,0,3.26,0,3.515,1.592,0,0-4.822,2.373-5.708,3.5A3.605,3.605,0,0,1,72.522,42.01Z" transform="translate(34.157 17.88)"/><path d="M31.045,7.65a12.017,12.017,0,0,1,1.307,3.335,7.39,7.39,0,0,0,6.309,4.191l-2.9,2.494-6.85-1.021-1.2-6.2Z" transform="translate(13.942 3.841)"/></svg>