<?xml version="1.0" encoding="UTF-8"?>
<svg id="Layer_2" data-name="Layer 2" xmlns="http://www.w3.org/2000/svg" viewBox="0 0 190.1 45.5">
  <defs>
    <style>
      .cls-1 {
        fill: #fff;
        stroke-width: 0px;
      }
    </style>
  </defs>
  <g id="Layer_1-2" data-name="Layer 1">
    <g>
      <path class="cls-1" d="M163.64,0c-9.92.02-17.95,8.08-17.93,18,.02,9.92,8.08,17.95,18,17.93,9.91-.02,17.93-8.06,17.93-17.97C181.63,8.03,173.57,0,163.64,0h0ZM177.58,7.97c-.87.58-1.89,1.16-2.9,1.74-.59-1.19-1.32-2.31-2.18-3.33.7-.45,1.38-.93,2.03-1.45,1.25.74,2.3,1.79,3.04,3.04h0ZM170.03,2.03c1.46.57,2.83,1.35,4.07,2.32-.62.56-1.3,1.05-2.03,1.45-.89-.99-1.86-1.91-2.9-2.75.25-.37.54-.71.87-1.01ZM171.48,6.09c-.99.49-2.01.93-3.05,1.3-.4-1.01-.88-1.98-1.45-2.9.58-.25,1.12-.59,1.6-1.01,1.07.75,2.04,1.63,2.9,2.61h0ZM169.3,1.74c-.28.25-.53.55-.73.87-.97-.62-1.99-1.15-3.05-1.59,1.29.02,2.57.26,3.77.72h0ZM168,3.04c-.4.3-.84.54-1.31.72-.58-.87-1.16-1.59-1.74-2.46,1.08.47,2.1,1.05,3.05,1.74h0ZM163.93,1.45c.74.78,1.38,1.66,1.89,2.61-.61.18-1.25.27-1.89.29V1.45ZM163.93,5.07c.79,0,1.58-.15,2.32-.43.57.92,1.06,1.89,1.45,2.9-1.24.27-2.51.47-3.78.58v-3.05ZM163.2,1.45v2.9c-.64-.04-1.27-.13-1.89-.29.68-.83,1.31-1.71,1.89-2.61h0ZM160.74,3.77c-.48-.15-.92-.4-1.31-.72.99-.59,2-1.12,3.05-1.59-.7.67-1.29,1.46-1.74,2.32h0ZM161.75.87c-1.05.47-2.06,1.01-3.05,1.59-.28-.25-.53-.55-.73-.87,1.24-.32,2.5-.56,3.77-.72h0ZM174.09,31.58c-2.32-1.3-2.47-3.19-2.32-3.77.15-.72.58-.43.87-.43,1.6,0,3.19-.43,5.23-2.61,2.8-3.17,2.54-8.01-.58-10.87-3.78-3.62-7.84-3.04-10.45.29-.77.76-1.82,1.17-2.9,1.16-1.74,0-.58,1.3-.58,1.59-.01.23-.2.42-.43.43-.58-.15-.29.72-.29.87s-.29.43-.29.43c-.73,0-.58.58-.44.87.03.23-.08.46-.29.58-.29.14-.43.72-.43,1.16,0,.72.73,1.3,1.89,2.17.81.5,1.3,1.37,1.31,2.32.03.73.12,1.46.29,2.17.29.72.29,2.17-1.31,2.17-2,.33-3.95.91-5.81,1.74-1.2.45-2.51.56-3.78.29-.62-.44-1.2-.92-1.74-1.45-.18-.78.04-1.59.58-2.17.6.51,1.4.72,2.18.58,1.22-.11,2.43-.3,3.63-.58.44-.15.58-.15.73,0,1,.56,2.27.19,2.82-.81.11-.2.19-.41.23-.64.58-2.03-.73-1.45-1.02-1.3-.15.14-.44,0-.29-.15.29-.43-.15-.43-.29-.43-.55.09-1.05.34-1.45.72-.18.1-.38.15-.58.15-.73-.43-2.9.15-3.63-1.01-.19-1.99-.48-3.98-.87-5.94-.09-.25-.03-.53.15-.72.58-.87,2.03,0,2.9,0,.58.05,1.15-.23,1.45-.72.29-.29.44-.15.58-.29s0-.29,0-.43.15,0,.29-.15,0-.43,0-.58c.29-.43.87-.14.58-1.01-.11-.53.06-1.07.44-1.45.43-.58,2.32-3.19-.87-5.94-3.05-2.61-6.24-2.32-8.28-.15s-1.02,5.36-.87,6.23c.11.82-.38,1.61-1.16,1.88-.97.55-1.9,1.18-2.76,1.88.09-6.87,4.34-13.01,10.74-15.5.29.29.58.72.87,1.01-.73.58-2.32,1.88-2.32,1.88.15.02.3.07.44.15.15.02.3.07.43.14.64-.58,1.32-1.11,2.03-1.59.48.42,1.02.76,1.6,1.01-.29.58-1.16,2.03-1.16,2.03.08.08.18.13.29.15.08.08.18.13.29.14,0,0,.87-1.59,1.16-2.17.69.28,1.43.43,2.18.43v2.9c-.63.02-1.27-.02-1.89-.14h-.29l.15.29c.15.15.15.29.29.43h1.74v5.36h.73v-1.3c1.02-.02,2.04-.11,3.05-.29l1.02-.87h-.58c-1.01.16-2.03.25-3.05.29h-.44v-3.33c1.38.02,2.75-.17,4.07-.58l1.02,3.04.73-.29s-.73-2.17-1.02-3.04c1.1-.34,2.17-.78,3.19-1.3.86,1.02,1.59,2.14,2.18,3.33-.47.22-.96.41-1.45.58.73.14,1.31.29,1.31.29.14-.07.28-.12.44-.15.03.15.07.3.15.43l1.02.43-.15-.29c-.12-.3-.26-.59-.44-.87,1.08-.47,2.1-1.05,3.05-1.74,1.85,2.79,2.81,6.07,2.76,9.42.17,5.33-2.27,10.41-6.54,13.61h0Z"/>
      <path class="cls-1" d="M144.04,4.78l-.29.29c-1.02.87-3.48,3.33-3.05,6.09v.15l.15.58.29-.29c1.66-1.69,2.73-3.88,3.05-6.23l.15-.72-.29.14Z"/>
      <path class="cls-1" d="M139.1,9.42l-.15.29c-.27.85-.47,1.72-.58,2.61-.4,2.17.07,4.41,1.31,6.23l.15.29.15.29.29-1.16c.22-2.74-.07-5.49-.87-8.11l-.29-.58v.15Z"/>
      <path class="cls-1" d="M137.36,16.66v.29c-.15,1.74,0,6.23,3.63,8.69l.44.29v-.58c0-1.74-2.03-6.81-3.48-8.55l-.43-.58-.15.44Z"/>
      <path class="cls-1" d="M137.94,24.63v.29c.58,2.61,2.9,6.66,6.68,7.97l.58.15-.15-.58c-1.63-3.06-3.91-5.73-6.68-7.82l-.43-.29v.29Z"/>
      <path class="cls-1" d="M145.64,8.69l-.43.15c-2.76,1.74-4.07,3.77-4.07,6.38v.58l.44-.29c1.75-1.76,3.09-3.89,3.92-6.23l.15-.72v.14Z"/>
      <path class="cls-1" d="M143.89,14.2l-.15.29c-.73.72-3.05,3.19-2.9,6.23.03.49.12.98.29,1.45l.15.43.29-.43c1.16-1.59,2.61-5.65,2.47-7.53v-.58l-.15.15Z"/>
      <path class="cls-1" d="M144.04,19.56l-.15.29c-1.09,1.52-1.7,3.34-1.74,5.22.05,1.25.46,2.45,1.16,3.48l.29.43.15-.43c.61-2.12.9-4.32.87-6.52,0-.69-.09-1.37-.29-2.03l-.15-.58-.15.15Z"/>
      <path class="cls-1" d="M145.34,25.21l-.15.29c-.36,1.07-.51,2.2-.44,3.33,0,2.27,1.22,4.37,3.19,5.51l.29.14.15-.43v-.43c0-1.88-1.45-6.81-2.61-8.26l-.29-.43-.15.29Z"/>
      <path class="cls-1" d="M141.43,32.75l.15.29c1.45,2.46,4.07,5.8,8.86,4.93h.44l-.29-.29c-.87-1.3-6.68-4.64-8.71-4.93l-.58-.15.14.14Z"/>
      <path class="cls-1" d="M148.54,39.12l-.73.15.73.29c2.88,1.26,6.08,1.56,9.15.87.73-.26,1.38-.71,1.89-1.3,3.92.43,7.55,3.62,9.73,6.23l.15.15h.15c.27-.16.51-.35.73-.58l.15-.15-.15-.15c-1.62-1.94-3.59-3.56-5.81-4.78-3.19-1.45-8.71-2.61-15.97-.73Z"/>
      <path class="cls-1" d="M148.69,31.01v.29c.44,2.9,1.6,6.66,6.53,6.23h.29l-.15-.29c-.29-1.3-4.79-5.07-6.39-6.09l-.43-.29.15.14Z"/>
      <path class="cls-1" d="M182.95,4.49l.15.72c.32,2.35,1.39,4.54,3.05,6.23l.29.29.15-.58v-.14c.43-2.75-2.03-5.22-3.05-6.09l-.29-.29-.29-.14Z"/>
      <path class="cls-1" d="M188.03,9.13l-.29.58c-.73,2.64-1.02,5.38-.87,8.11l.29,1.16.15-.15.15-.29c1.32-1.79,1.8-4.06,1.31-6.23-.1-.89-.29-1.76-.58-2.61l-.15-.29v-.29Z"/>
      <path class="cls-1" d="M189.92,16.37l-.44.58c-1.45,1.88-3.48,6.81-3.48,8.55v.58l.43-.29c3.63-2.32,3.78-6.81,3.63-8.69v-.29l-.15-.44Z"/>
      <path class="cls-1" d="M189.34,24.34l-.58.29c-2.77,2.09-5.05,4.76-6.68,7.82l-.15.58.58-.15c3.78-1.16,6.24-5.36,6.68-7.97v-.29l.15-.29Z"/>
      <path class="cls-1" d="M181.64,8.4l.15.72c.79,2.4,2.13,4.59,3.92,6.38l.43.29v-.58c.15-2.61-1.16-4.64-3.92-6.38l-.29-.14-.29-.29Z"/>
      <path class="cls-1" d="M183.24,14.05v.58c-.15,1.88,1.45,6.09,2.47,7.53l.29.43.15-.43c.15-.47.25-.96.29-1.45.15-3.04-2.18-5.51-2.9-6.23l-.15-.15-.15-.29Z"/>
      <path class="cls-1" d="M183.1,19.27l-.15.58c-.2.66-.3,1.34-.29,2.03,0,2.46.29,5.51.87,6.52l.15.43.29-.43c.75-1.01,1.15-2.22,1.16-3.48-.07-1.87-.67-3.68-1.74-5.22l-.15-.29-.15-.15Z"/>
      <path class="cls-1" d="M181.79,24.92l-.29.43c-1.16,1.45-2.61,6.38-2.61,8.26v.43l.15.43.29-.14c1.92-1.18,3.12-3.25,3.19-5.51-.01-1.12-.16-2.24-.44-3.33l-.15-.29-.15-.29Z"/>
      <path class="cls-1" d="M186,32.45l-.58.15c-2.03.29-7.84,3.62-8.71,4.93l-.29.29h.43c4.79.87,7.41-2.46,8.86-4.93l.15-.29.15-.15Z"/>
      <path class="cls-1" d="M162.91,39.84c-2.25,1.16-4.23,2.79-5.81,4.78l-.15.15.15.15c.15.15.58.43.73.58h.15l.15-.15c2.18-2.61,5.81-5.94,9.73-6.23.53.56,1.17,1,1.89,1.3,2.18.72,6.1.43,9.15-.87l.73-.29-.73-.15c-7.41-1.88-12.92-.72-15.97.73Z"/>
      <path class="cls-1" d="M178.59,30.72l-.44.29c-1.6,1.01-5.95,4.78-6.39,6.09l-.15.29h.29c4.79.43,5.95-3.33,6.53-6.23v-.29l.15-.14Z"/>
      <path class="cls-1" d="M56.05,1.74h6.1v5.51h-6.1V1.74ZM56.63,13.62h5.08v26.95h-5.08V13.62Z"/>
      <path class="cls-1" d="M18.15,13.62h5.08v26.95h-4.94v-3.91h-.15c-2.03,3.33-5.52,4.78-9.29,4.78-5.66,0-8.86-4.35-8.86-9.71V13.62h5.08v15.94c0,4.64,1.02,8.11,5.95,8.11,2.61.08,4.99-1.49,5.95-3.91.71-2.05,1.06-4.21,1.02-6.38v-13.77h.15Z"/>
      <path class="cls-1" d="M33.4,17.53c1.73-2.93,4.87-4.74,8.28-4.78,1.89,0,10.16.43,10.16,9.13v18.55h-5.08v-16.95c0-4.49-1.89-6.81-6.24-6.81-1.85,0-3.62.73-4.94,2.03-.73.72-2.18,1.88-2.18,7.24v14.63h-5.08V13.62h5.08v3.91Z"/>
      <path class="cls-1" d="M83.06,22.17c-.29-3.33-1.89-5.65-5.52-5.65-4.79,0-6.68,4.2-6.68,10.43s1.89,10.43,6.68,10.43c3.34,0,5.37-2.17,5.66-6.09h5.08c-.44,6.09-4.94,9.71-10.89,9.71-8.57,0-12.05-6.09-12.05-13.91s3.92-14.34,12.49-14.34c5.66,0,9.87,3.62,10.16,9.42h-4.94Z"/>
      <path class="cls-1" d="M95.83,27.96c-.44,4.64,1.6,9.56,6.68,9.56,3.92,0,5.95-1.59,6.53-5.51h5.37c-.87,6.09-5.52,9.13-11.91,9.13-8.57,0-12.05-6.09-12.05-13.91s3.92-14.34,12.49-14.34c7.99.15,11.76,5.22,11.76,12.6v2.46h-18.88ZM109.48,24.49c.14-4.49-1.89-7.97-6.83-7.97-4.21,0-6.68,3.62-6.68,7.97h13.5Z"/>
      <path class="cls-1" d="M120.51,40.28v-23.18h-4.64v-3.48h4.65v-5.8c.15-5.8,4.65-7.39,8.42-7.39,1.23.05,2.45.25,3.63.58v4.2c-.87,0-1.74-.15-2.61-.15-2.9,0-4.5.72-4.36,3.62v4.93h6.24v3.48h-6.24v23.18h-5.09Z"/>
    </g>
  </g>
</svg>