<svg xmlns="http://www.w3.org/2000/svg" xmlns:xlink="http://www.w3.org/1999/xlink" width="190.062" height="45.64" viewBox="0 0 190.062 45.64"><defs><style>.a{fill:#fff;}.b{clip-path:url(#a);}</style><clipPath id="a"><rect class="a" width="190.062" height="45.64"/></clipPath></defs><g class="b"><path class="a" d="M547.411,584.569a17.966,17.966,0,1,0,18,17.966A17.982,17.982,0,0,0,547.411,584.569Zm13.939,7.969c-.872.58-1.888,1.159-2.9,1.739a16.432,16.432,0,0,0-2.178-3.332,24.725,24.725,0,0,0,2.033-1.449A8.755,8.755,0,0,1,561.35,592.538ZM553.8,586.6a16.316,16.316,0,0,1,4.066,2.318,10.325,10.325,0,0,1-2.032,1.449,26.016,26.016,0,0,0-2.9-2.753A6.307,6.307,0,0,1,553.8,586.6Zm1.452,4.057a27.558,27.558,0,0,1-3.049,1.3,18.025,18.025,0,0,0-1.452-2.9,6.01,6.01,0,0,0,1.6-1.014A16.289,16.289,0,0,1,555.251,590.654Zm-2.178-4.346a3.848,3.848,0,0,0-.726.869,20.191,20.191,0,0,0-3.049-1.594A10.931,10.931,0,0,1,553.073,586.308Zm-1.307,1.3a5.906,5.906,0,0,1-1.307.724c-.581-.869-1.162-1.594-1.742-2.463A16.331,16.331,0,0,1,551.766,587.612Zm-4.066-1.594a12.067,12.067,0,0,1,1.887,2.608,7.392,7.392,0,0,1-1.887.289Zm0,3.622a6.6,6.6,0,0,0,2.323-.435,17.945,17.945,0,0,1,1.452,2.9,29.5,29.5,0,0,1-3.775.58Zm-.726-3.622v2.9a10.046,10.046,0,0,1-1.888-.289A29.422,29.422,0,0,0,546.975,586.018Zm-2.468,2.318a3.811,3.811,0,0,1-1.307-.724,30.867,30.867,0,0,1,3.049-1.594A8.854,8.854,0,0,0,544.507,588.336Zm1.017-2.9a30.793,30.793,0,0,0-3.049,1.594,3.836,3.836,0,0,1-.726-.87A29.107,29.107,0,0,1,545.523,585.438Zm12.341,30.716c-2.323-1.3-2.468-3.187-2.323-3.767.145-.725.581-.435.872-.435,1.6,0,3.194-.435,5.227-2.608a7.765,7.765,0,0,0-.581-10.867c-3.775-3.622-7.841-3.042-10.454.29a4.058,4.058,0,0,1-2.9,1.159c-1.742,0-.581,1.3-.581,1.594a.463.463,0,0,1-.435.435c-.581-.145-.291.725-.291.87s-.29.434-.29.434c-.727,0-.581.58-.436.87a.578.578,0,0,1-.291.58c-.29.144-.435.724-.435,1.159,0,.724.726,1.3,1.888,2.173a2.749,2.749,0,0,1,1.307,2.318,11.174,11.174,0,0,0,.29,2.173c.291.725.291,2.173-1.307,2.173a23.571,23.571,0,0,0-5.807,1.739,6.748,6.748,0,0,1-3.775.29,15.361,15.361,0,0,1-1.742-1.449,2.42,2.42,0,0,1,.581-2.173,2.65,2.65,0,0,0,2.178.58,27.127,27.127,0,0,0,3.63-.58c.436-.145.581-.145.726,0a2.076,2.076,0,0,0,3.049-1.449c.581-2.028-.726-1.449-1.016-1.3-.145.144-.436,0-.291-.145.291-.435-.145-.435-.29-.435a2.717,2.717,0,0,0-1.452.724,1.1,1.1,0,0,1-.581.145c-.726-.435-2.9.145-3.63-1.014a58.721,58.721,0,0,0-.871-5.941.733.733,0,0,1,.145-.724c.581-.87,2.033,0,2.9,0a1.539,1.539,0,0,0,1.452-.725c.291-.29.436-.145.581-.29s0-.29,0-.435.146,0,.291-.145,0-.435,0-.58c.29-.435.871-.144.581-1.014a1.609,1.609,0,0,1,.436-1.449c.435-.58,2.323-3.188-.872-5.941-3.049-2.608-6.243-2.318-8.276-.145s-1.017,5.361-.872,6.23a1.757,1.757,0,0,1-1.162,1.884,18.866,18.866,0,0,0-2.758,1.884,16.864,16.864,0,0,1,10.744-15.5c.291.29.581.725.872,1.014-.726.58-2.323,1.884-2.323,1.884a1.127,1.127,0,0,1,.436.145,1.465,1.465,0,0,1,.435.144,19.794,19.794,0,0,1,2.033-1.594,5.986,5.986,0,0,0,1.6,1.014c-.29.58-1.162,2.029-1.162,2.029a.509.509,0,0,0,.291.145.45.45,0,0,0,.29.144s.872-1.594,1.162-2.173a5.833,5.833,0,0,0,2.178.435v2.9a8.316,8.316,0,0,1-1.888-.144h-.291l.146.29c.145.145.145.29.29.434h1.742v5.361h.726v-1.3a19.867,19.867,0,0,0,3.049-.289l1.017-.87h-.581a26.642,26.642,0,0,1-3.049.29h-.436v-3.332a13.147,13.147,0,0,0,4.066-.58l1.016,3.042.727-.289s-.727-2.173-1.017-3.043a20.941,20.941,0,0,0,3.194-1.3,16.446,16.446,0,0,1,2.178,3.333,13.76,13.76,0,0,1-1.452.58c.726.144,1.307.289,1.307.289a1.466,1.466,0,0,1,.436-.145,1.46,1.46,0,0,0,.145.435l1.017.435-.145-.29a4.775,4.775,0,0,0-.436-.869,16.324,16.324,0,0,0,3.049-1.739,16.629,16.629,0,0,1,2.759,9.417A16.35,16.35,0,0,1,557.865,616.154Z" transform="translate(-383.774 -584.569)"/><path class="a" d="M524.818,592.13l-.291.289c-1.016.87-3.484,3.332-3.049,6.085v.145l.146.58.29-.289a11.011,11.011,0,0,0,3.049-6.23l.145-.725Z" transform="translate(-380.784 -587.348)"/><path class="a" d="M518.446,599.545l-.145.29a14.543,14.543,0,0,0-.581,2.608,8.353,8.353,0,0,0,1.307,6.23l.146.29.145.289.29-1.159a21.823,21.823,0,0,0-.871-8.114l-.291-.58Z" transform="translate(-379.349 -590.128)"/><path class="a" d="M516.147,610.959v.289c-.146,1.739,0,6.23,3.629,8.693l.436.289v-.58c0-1.739-2.033-6.81-3.485-8.548l-.435-.58Z" transform="translate(-378.792 -594.297)"/><path class="a" d="M517.1,623.792v.29c.581,2.608,2.9,6.665,6.679,7.969l.581.145-.146-.579a23.784,23.784,0,0,0-6.679-7.824l-.435-.289Z" transform="translate(-379.161 -599.161)"/><path class="a" d="M526.708,598.386l-.435.145c-2.759,1.739-4.066,3.768-4.066,6.375v.58l.436-.289a16.753,16.753,0,0,0,3.92-6.231l.145-.724Z" transform="translate(-381.076 -589.694)"/><path class="a" d="M524.788,607.193l-.145.29c-.726.724-3.049,3.187-2.9,6.23a5.145,5.145,0,0,0,.29,1.449l.146.435.29-.435c1.162-1.594,2.613-5.651,2.468-7.534v-.58Z" transform="translate(-380.898 -592.994)"/><path class="a" d="M525.719,615.768l-.145.289a9.335,9.335,0,0,0-1.742,5.216,6.623,6.623,0,0,0,1.162,3.477l.29.435.146-.435a22.7,22.7,0,0,0,.871-6.52,6.71,6.71,0,0,0-.29-2.028l-.146-.579Z" transform="translate(-381.685 -596.208)"/><path class="a" d="M528.571,624.719l-.145.289a8.792,8.792,0,0,0-.436,3.332,6.382,6.382,0,0,0,3.194,5.506l.291.144.145-.435v-.434c0-1.884-1.452-6.81-2.613-8.259l-.291-.435Z" transform="translate(-383.229 -599.508)"/><path class="a" d="M522.585,636.857l.145.29c1.452,2.463,4.066,5.8,8.857,4.927h.436l-.29-.29c-.872-1.3-6.679-4.636-8.712-4.926l-.581-.145Z" transform="translate(-381.163 -604.112)"/><path class="a" d="M533.615,646.552l-.726.145.726.29a14.715,14.715,0,0,0,9.147.87,4.426,4.426,0,0,0,1.887-1.3c3.92.435,7.55,3.622,9.728,6.23l.145.145h.145a3.177,3.177,0,0,0,.726-.58l.145-.145-.145-.145a20.364,20.364,0,0,0-5.808-4.781C546.392,645.828,540.875,644.669,533.615,646.552Z" transform="translate(-385.08 -607.433)"/><path class="a" d="M534.2,634.076v.29c.436,2.9,1.6,6.665,6.534,6.23h.29l-.145-.29c-.29-1.3-4.792-5.071-6.389-6.085l-.435-.289Z" transform="translate(-385.515 -603.07)"/><path class="a" d="M589.092,591.753l.145.725a11.011,11.011,0,0,0,3.049,6.23l.291.29.145-.58v-.144c.435-2.753-2.033-5.216-3.049-6.086l-.291-.29Z" transform="translate(-406.144 -587.262)"/><path class="a" d="M596.5,599.169l-.291.579a25.35,25.35,0,0,0-.871,8.114l.29,1.159.146-.145.145-.29a7.646,7.646,0,0,0,1.307-6.23,11.925,11.925,0,0,0-.581-2.608l-.145-.29Z" transform="translate(-408.472 -590.041)"/><path class="a" d="M597.889,610.756l-.436.58c-1.452,1.884-3.484,6.81-3.484,8.548v.58l.435-.29c3.63-2.318,3.776-6.81,3.63-8.693v-.289Z" transform="translate(-407.972 -594.384)"/><path class="a" d="M594.87,623.5l-.581.289a23.783,23.783,0,0,0-6.679,7.824l-.145.579.581-.145c3.775-1.159,6.243-5.361,6.679-7.969v-.29Z" transform="translate(-405.535 -599.161)"/><path class="a" d="M587,598.01l.145.725a16.185,16.185,0,0,0,3.921,6.375l.435.289v-.58c.146-2.608-1.162-4.636-3.92-6.375l-.291-.144Z" transform="translate(-405.36 -589.607)"/><path class="a" d="M589.551,607.048v.58c-.145,1.884,1.452,6.086,2.468,7.534l.29.435.146-.435a6.365,6.365,0,0,0,.29-1.449c.145-3.043-2.178-5.506-2.9-6.23l-.145-.145Z" transform="translate(-406.313 -592.994)"/><path class="a" d="M589.063,615.391l-.146.58a6.708,6.708,0,0,0-.29,2.029c0,2.463.29,5.506.871,6.52l.146.435.29-.435a5.887,5.887,0,0,0,1.162-3.477,9.7,9.7,0,0,0-1.742-5.216l-.145-.289Z" transform="translate(-405.97 -596.121)"/><path class="a" d="M585.492,624.429l-.291.435c-1.162,1.449-2.613,6.375-2.613,8.259v.434l.145.435.291-.144a6.708,6.708,0,0,0,3.194-5.506,14,14,0,0,0-.436-3.332l-.145-.289Z" transform="translate(-403.707 -599.508)"/><path class="a" d="M588.224,636.48l-.581.145c-2.033.289-7.84,3.622-8.712,4.926l-.29.29h.435c4.792.869,7.406-2.463,8.857-4.927l.145-.289Z" transform="translate(-402.227 -604.025)"/><path class="a" d="M553.473,647.277a17.873,17.873,0,0,0-5.808,4.781l-.145.145.145.145c.145.145.581.434.726.58h.145l.145-.145c2.178-2.608,5.808-5.94,9.728-6.23a5.526,5.526,0,0,0,1.888,1.3c2.178.725,6.1.435,9.147-.87l.726-.29-.726-.145C562.039,644.669,556.522,645.828,553.473,647.277Z" transform="translate(-390.563 -607.433)"/><path class="a" d="M577.946,633.7l-.436.29c-1.6,1.014-5.953,4.781-6.388,6.085l-.145.29h.29c4.791.435,5.953-3.333,6.534-6.231v-.289Z" transform="translate(-399.355 -602.983)"/><path class="a" d="M386.115,587.35h6.1v5.506h-6.1Zm.581,11.881h5.082V626.18H386.7Z" transform="translate(-330.069 -585.611)"/><path class="a" d="M314.62,606.353H319.7V633.3h-4.937v-3.912h-.146c-2.033,3.332-5.517,4.781-9.292,4.781-5.662,0-8.857-4.346-8.857-9.707V606.353h5.082v15.938c0,4.637,1.017,8.114,5.953,8.114a6.207,6.207,0,0,0,5.953-3.912,18.284,18.284,0,0,0,1.016-6.375V606.353Z" transform="translate(-296.471 -592.734)"/><path class="a" d="M346.84,609.744a9.751,9.751,0,0,1,8.276-4.781c1.888,0,10.163.435,10.163,9.128v18.546H360.2V615.684c0-4.492-1.888-6.81-6.243-6.81a7.052,7.052,0,0,0-4.937,2.028c-.726.725-2.178,1.884-2.178,7.244v14.634h-5.082V605.832h5.082Z" transform="translate(-313.444 -592.212)"/><path class="a" d="M418.693,614.38c-.291-3.332-1.887-5.651-5.517-5.651-4.792,0-6.679,4.2-6.679,10.432s1.888,10.432,6.679,10.432c3.339,0,5.372-2.173,5.662-6.085h5.082c-.436,6.085-4.937,9.708-10.89,9.708-8.566,0-12.051-6.085-12.051-13.91s3.92-14.344,12.487-14.344c5.662,0,9.873,3.622,10.164,9.418Z" transform="translate(-335.64 -592.212)"/><path class="a" d="M446.526,620.263c-.436,4.636,1.6,9.562,6.679,9.562,3.921,0,5.953-1.594,6.534-5.506h5.372c-.871,6.085-5.517,9.128-11.906,9.128-8.567,0-12.051-6.086-12.051-13.91s3.921-14.344,12.487-14.344c7.986.145,11.761,5.216,11.761,12.605v2.463Zm13.649-3.477c.145-4.491-1.888-7.969-6.825-7.969-4.211,0-6.679,3.622-6.679,7.969Z" transform="translate(-350.698 -592.299)"/><path class="a" d="M486.443,625.108V601.926H481.8v-3.477h4.646v-5.8c.146-5.8,4.647-7.389,8.422-7.389a15.808,15.808,0,0,1,3.63.58v4.2c-.871,0-1.742-.145-2.613-.145-2.9,0-4.5.725-4.356,3.622v4.926h6.243v3.477h-6.243v23.182Z" transform="translate(-365.931 -584.829)"/></g></svg>